/* XPM */
static char *_5b6c2065a9d49479e761a6f51b65e94wMYnmz5vTJ2BnblR[] = {
/* columns rows colors chars-per-pixel */
"60 60 232 2 ",
"   c #0A0301",
".  c #160B0A",
"X  c #1A0C0C",
"o  c #150606",
"O  c #16100E",
"+  c #1C0D10",
"@  c #2A0000",
"#  c #340101",
"$  c #3B0201",
"%  c #3D0D0B",
"&  c #2D1311",
"*  c #291D1B",
"=  c #351815",
"-  c #2A110D",
";  c #2A2A2B",
":  c #382B2A",
">  c #2E302D",
",  c #38312E",
"<  c #2D3234",
"1  c #333534",
"2  c #34373A",
"3  c #353A3C",
"4  c #393A3D",
"5  c #383635",
"6  c #302F31",
"7  c #1D2F31",
"8  c #460604",
"9  c #570606",
"0  c #55110F",
"q  c #580F11",
"w  c #441C1B",
"e  c #481816",
"r  c #591819",
"t  c #45130D",
"y  c #640404",
"u  c #6C0505",
"i  c #6C0708",
"p  c #680B0A",
"a  c #740202",
"s  c #7A0505",
"d  c #730709",
"f  c #760B0B",
"g  c #7B0A0A",
"h  c #7B0808",
"j  c #75120D",
"k  c #661718",
"l  c #7C1211",
"z  c #771418",
"x  c #760F12",
"c  c #6F241F",
"v  c #401C20",
"b  c #452827",
"n  c #5B2A2B",
"m  c #552627",
"M  c #5E2E31",
"N  c #473A3A",
"B  c #5D3632",
"V  c #6A2828",
"C  c #75292A",
"Z  c #6A2C31",
"A  c #633D3C",
"S  c #65403E",
"D  c #484848",
"F  c #554746",
"G  c #4A504E",
"H  c #595C5D",
"J  c #535B5A",
"K  c #4C5355",
"L  c #644C4C",
"P  c #6A4747",
"I  c #655B59",
"U  c #744044",
"Y  c #5D6363",
"T  c #6B6867",
"R  c #726A68",
"E  c #6C7373",
"W  c #747E7D",
"Q  c #7B7D7D",
"!  c #777474",
"~  c #676F71",
"^  c #840A09",
"/  c #8D0B0D",
"(  c #840606",
")  c #930D0C",
"_  c #950B0A",
"`  c #9A110E",
"'  c #930E12",
"]  c #841214",
"[  c #8C1313",
"{  c #85181B",
"}  c #951213",
"|  c #9D1212",
" . c #97191B",
".. c #8A0C10",
"X. c #B10D0D",
"o. c #B6110E",
"O. c #A10E12",
"+. c #A41313",
"@. c #AB1413",
"#. c #AC1818",
"$. c #B41514",
"%. c #BD1615",
"&. c #B41916",
"*. c #BC1817",
"=. c #BB1618",
"-. c #B4191A",
";. c #BD1918",
":. c #B31719",
">. c #A80E0C",
",. c #C31515",
"<. c #CA1515",
"1. c #C41917",
"2. c #CB1917",
"3. c #C51718",
"4. c #CC171A",
"5. c #C31919",
"6. c #CA191A",
"7. c #D31415",
"8. c #DA1415",
"9. c #D31916",
"0. c #D91719",
"q. c #D41A19",
"w. c #DA1A1B",
"e. c #D81917",
"r. c #CD1111",
"t. c #E31B1C",
"y. c #EA1C1C",
"u. c #EA1716",
"i. c #F21B1C",
"p. c #F31719",
"a. c #DA211C",
"s. c #E7201E",
"d. c #F2201F",
"f. c #EC1C20",
"g. c #E01F22",
"h. c #F01D23",
"j. c #D62627",
"k. c #DC3333",
"l. c #D53638",
"z. c #CF2A29",
"x. c #E62627",
"c. c #E63738",
"v. c #EC3535",
"b. c #846C6C",
"n. c #887B7B",
"m. c #85706F",
"M. c #DB4445",
"N. c #D75150",
"B. c #EA4544",
"V. c #E55959",
"C. c #F0504F",
"Z. c #DE6C6E",
"A. c #E76868",
"S. c #E97675",
"D. c #EE6F6E",
"F. c #77807D",
"G. c #7A857F",
"H. c #86817E",
"J. c #F3827E",
"K. c #767E80",
"L. c #F87D80",
"P. c #7B8282",
"I. c #7A8486",
"U. c #8A8E8D",
"Y. c #838A8A",
"T. c #948E8D",
"R. c #88918E",
"E. c #868F91",
"W. c #8E9695",
"Q. c #989898",
"!. c #A39998",
"~. c #A3A29F",
"^. c #969EA0",
"/. c #9FA4A3",
"(. c #ACACAC",
"). c #A7A6A7",
"_. c #AEB5B5",
"`. c #B2B4B4",
"'. c #B9BDBC",
"]. c #B4B9BB",
"[. c #ADAEAF",
"{. c #F58587",
"}. c #F19494",
"|. c #F2A19E",
" X c #F8A8A7",
".X c #F8B7B8",
"XX c #EBA5A6",
"oX c #FBC1BF",
"OX c #BCBFC4",
"+X c #BDC3C3",
"@X c #BEC8C7",
"#X c #C2C5C4",
"$X c #C3C8C5",
"%X c #C5CACA",
"&X c #CACDCC",
"*X c #C5C6C8",
"=X c #CCD0CE",
"-X c #CECFD1",
";X c #CAD1D2",
":X c #D4D5D5",
">X c #D5DBDB",
",X c #DADBDC",
"<X c #D5D7D8",
"1X c #F8D5D5",
"2X c #F9CACA",
"3X c #DCE0DE",
"4X c #FCE3DE",
"5X c #DDDEE1",
"6X c #F9DFE0",
"7X c #DCE1E1",
"8X c #EBECEC",
"9X c #E5E7E7",
"0X c #F7EAE9",
"qX c #F1F1EF",
"wX c #EDEFF1",
"eX c #F1EFF1",
"rX c #EEF3F3",
"tX c #F4F5F5",
"yX c #F8F4F3",
"uX c #F6F8F6",
"iX c #FAF7FA",
"pX c #F6F9F8",
"aX c #FFFFFD",
"sX c #FFFDFE",
"dX c #FEFEFE",
"fX c #FFFEFF",
"gX c white",
"hX c #FEFFFF",
"jX c #FDFEFE",
"kX c #FFFFFF",
"lX c #F8F8F8",
"zX c #E8F1EE",
/* pixels */
"gXgXgXgXgXgXgXgXgXgXgXgXgXgXgXgXgXgXgXgXgXgXgXgXgXgXgXgXgXgXgXgXgXgXgXgXgXgXgXgXgXgXgXgXgXgXgXgXgXgXgXgXgXgXgXgXgXgXgXgX",
"gXgXgXgXgXgXgXgXgXgXgXgXgXgXgXgXgXgXgXgXgXgXgXgXgXgXgXgXgXgXgXgXgXgXgXgXgXgXgXgXgXgXgXgXgXgXgXgXgXgXgXgXgXgXgXgXgXgXgXgX",
"gXgXgXgXgXgXgXgXgXgXgXgXgXgXgXgXgXgXgXgXgXgXgXgXgXgXgXgXgXgXgXgXgXgXgXgXgXgXgXgXgXgXgXgXgXgXgXgXgXgXgXgXgXgXgXgXgXgXgXgX",
"gXgXgXgXgXgXgXgXgXgXgXgXgXgXgXgXgXgXgXgXgXgXgXgXgXgXgXgXgXgXgXgXgXgXgXgXgXgXgXgXgXgXgXgXgXgXgXgXgXgXgXgXgXgXgXgXgXgXgXgX",
"gXgXgXgXgXgXgXgXgXgXgXgXgXgXgXgXgXgXgXgXgXgXgXgXgXgXgXgXgXgXgXgXgXgXgXgXgXgXgXgXgXgXgXgXgXgXgXgXgXgXgXgXgXgXgXgXgXgXgXgX",
"gXgXgXgXgXgXgXgXgXgXgXgXgXgXsXlXlXtXtXtXlXtXtXtXuXlXpXgXgXgXgXgXpXlXpXuXtXtXtXtXtXtXtXtXpXlXgXgXgXgXgXgXgXgXgXgXgXgXgXgX",
"gXgXgXgXgXgXgXgXgXgXgXgXgXlX8X<X&X#X+X#X#X#X+X#X$X:X9XtXgXgXgXgXtX9X:X$X+X#X#X#X#X+X#X&X,X8XlXgXgXgXgXgXgXgXgXgXgXgXgXgX",
"gXgXgXgXgXgXgXgXgXgXgXgXgX8X&X(.Y.F.E W W W W W Y./.%X9XlXgXgXgX9X%X/.Y.W W W Q W W Q U.(.=X8XgXgXgXgXgXgXgXgXgXgXgXgXgX",
"gXgXgXgXgXgXgXgXsXgXpXjXgX9X'.F.K 2 1 1 1 1 < 1 D E (.,XlXgXgXsX5X(.E D 2 < 1 5 1 > 1 G Q ].9XgXaXgXgXgXjXgXgXiXgXgXgXgX",
"gXgXgXgXgXgXgXgXgXgXpXpXeX:X!.I ; X o o o o o o * F T.%X8XlXtX8X#XT.F * o o o X . o . : I ~.:XeXlXgXsXgXgXgXgXgXgXgXgXgX",
"gXgXgXgXgXgXgXgXpXpX8X,X#X).m.A e $ $ $ $ $ $ $ % B b.Q.`.+X'.`.!.b.B t $ # $ $ # # # t S m.~.+X5XeXlXgXgXgXgXgXgXgXgXgX",
"gXgXgXgXgXgXgXgXjXtX<X).I.T P C l f s s h h s s l C U I ~ ~ ~ T I S c j h s s h ( ^ h x C P T I.[.:XtXgXgXgXgXjXgXgXgXgX",
"gXgXgXgXgXgXgXgXgX8X#XI.G : r z $.%.,.,.,.%.,.,.$. .V b < 7 ; ; b V  .-.,.,.%.*.<.,.%.#.{ r b G I.+XzXaXgXsXgXgXgXgXgXgX",
"gXgXgXgXgXgXlXlXeX:X).T : % y ' 7.t.y.y.y.t.y.y.q.@.j % .   o o % x #.w.y.y.t.t.s.y.t.6.} 9 % : T ~.:X8XtXiXgXgXgXgXgXgX",
"gXgXgXgXgXgX8X<X'.Q.m.P r y ( X.8.y.p.p.p.p.i.i.w.%.) y 8 8 8 9 u ) 3.y.i.d.i.i.y.y.y.e.X.( p r P m.Q.'.<X8XaXaXgXgXgXgX",
"gXgXgXgXgXlX<X`.G.I S C z ' X.r.8.y.u.u.u.u.y.y.t.q.=.O./ / ^ ^ ` $.7.u.y.x.f.i.f.i.i.u.<.@.} { Z A I Y.[.,XlXaXgXgXgXgX",
"gXgXgXgXgXlX&XR.K : e l :.q.8.t.f.x.s.s.s.s.x.f.w.w.w.9.2.2.6.2.e.e.w.t.y.y.y.y.t.y.y.t.t.t.6.@.] t ; K E.&XyXgXgXgXgXgX",
"gXgXgXgXgXtX#XP.2 X $ s =.j.x.v.c.B.B.B.B.c.v.x.y.t.t.t.w.w.t.t.t.t.t.t.t.y.y.t.t.y.t.t.t.y.w.%.g $ + 4 W #XtXgXgXgXgXgX",
"gXgXgXgXgXtX+XW 3 X 8 s 5.x.B.V.D.J.{.{.S.D.C.c.y.u.u.y.y.y.y.i.f.y.t.t.t.t.w.w.w.t.t.t.y.f.t.,.g $ . 2 W #XtXgXgXgXgXgX",
"gXgXgXgXgXtX#XP.3 o $ s ,.x.V.{. XoX2X2X.X|.D.B.a.8.8.t.t.t.t.t.t.t.t.w.w.w.w.w.w.w.w.w.t.y.w.%.h $ X 4 P.#XtXjXgXgXgXgX",
"gXgXgXgXgXtX#XW 3 . # a o.k.A. X1X0XlXyX6X.XS.M.j.7.7.w.w.q.e.e.w.w.w.w.w.w.w.w.w.w.0.w.t.y.q.o.h # . 2 W #XtXjXgXgXgXgX",
"gXgXgXgXgXtX#XW 3 X # a $.k.D. X0XiXpX0X1X XD.M.g.0.8.0.w.q.q.w.9.q.q.q.w.w.w.w.w.w.0.q.w.t.q.$.h # X 4 K.#XtXgXgXgXgXgX",
"aXgXgXgXgXtX#XP.1 . # a o.k.D..X0X0X1X.X}.S.V.c.w.8.8.0.w.q.q.w.w.w.q.q.w.w.w.w.q.w.w.w.w.t.q.$.s # X 4 K.#XtXjXgXgXgXgX",
"gXgXgXgXgXtX#XF.5 X # a $.k.S..X0X4X.X{.V.M.k.j.a.9.e.w.q.q.q.q.w.w.w.w.q.w.q.q.q.w.w.w.t.t.q.$.h # . 3 K.$XyXgXgXgXgXgX",
"gXgXgXgXgXtX#XF.3 o $ a $.l.D. X1X2X|.A.k.w.e.9.w.w.w.w.w.w.w.w.w.w.w.w.w.w.w.w.q.w.q.q.w.w.q.$.h # X 4 W $XyXgXgXgXgXgX",
"gXgXgXgXgXtX#XF.3 X # a $.z.V.{.XX|.S.M.j.7.7.9.q.q.q.q.q.q.q.q.q.q.q.q.q.q.q.q.q.w.q.q.w.w.6.$.d # X 4 W $XyXgXgXgXgXgX",
"gXgXgXgXgXtX#XF.3 X # u @.j.M.V.Z.Z.N.z.9.r.7.7.9.9.9.9.9.9.9.9.9.9.9.9.9.9.9.9.9.9.4.9.q.w.4.@.d # X 4 W $XyXgXgXgXgXgX",
"gXgXgXgXgXtX#XF.5 X # u @.6.j.k.l.l.z.j.9.7.<.4.2.2.2.2.2.2.2.2.2.2.2.2.2.2.2.2.2.4.2.2.9.q.6.@.d # X 4 W $XyXgXgXgXgXgX",
"gXgXgXgXgXtX#XF.5 X # i @.4.q.9.6.6.6.2.4.2.2.6.2.2.2.2.2.2.2.2.2.2.2.2.2.2.2.2.6.4.4.6.9.q.6.@.u # X 4 W #XtXgXgXgXgXgX",
"gXgXgXgXgXtX#XF.3 X # i @.<.7.7.<.<.<.3.2.6.3.6.6.6.6.6.6.6.6.6.6.6.6.6.6.6.6.6.6.4.4.6.9.q.6.@.u # X 4 W #XtXgXgXgXgXgX",
"gXgXgXgXgXtX#XF.3 X # u @.2.7.7.<.<.2.2.6.6.6.6.6.6.6.6.6.6.6.6.6.6.6.6.6.6.6.6.2.4.4.6.9.q.6.@.i # X 4 W #XtXgXgXgXgXgX",
"gXgXgXgXgXtX#XF.3 + # u @.2.9.9.2.4.4.4.6.6.4.4.6.6.6.6.6.6.6.6.6.6.6.6.6.6.6.6.2.4.2.2.9.q.3.@.i # X 4 F.#XtXgXgXgXgXgX",
"gXgXgXgXgXlX&XQ.J , w k [ #.$.,.3.6.4.2.6.3.3.6.6.6.6.6.6.6.6.6.6.6.6.6.6.3.3.6.4.1.2.1.,.$.+.} k w , J W.;XtXaXgXgXgXgX",
"gXgXgXgXgXlX3X`.W.R P Z k h _ >.,.6.4.6.6.5.,.3.1.1.1.1.1.1.1.1.3.3.3.3.3.3.3.3.6.6.6.,.>./ f z Z P R R.].5XlXaXgXgXgXgX",
"gXgXgXgXgXgXtX,X%X(.n.L w 8 y [ %.5.6.3.3.1.*.;.5.5.5.5.5.5.5.5.;.;.;.*.5.5.5.5.6.6.6.$./ y 8 w L n.(.&X7XeXiXgXgXgXgXgX",
"gXgXgXgXgXgXgXlXtX,X(.T 5 - 8 x @.-.;.,.%.*.*.;.;.;.;.;.;.;.;.;.*.*.*.*.*.1.*.*.;.;.=.+.f 8 & , R (.3XtXiXsXgXgXgXgXgXgX",
"gXgXgXgXgXgXgXgXgXqX$XR.J N m k [ } +.%.%.1.;.;.*.*.*.*.*.*.*.*.*.;.%.%.%.5.5.%.$.@.` ] k b N H E.@XwXgXaXgXgXgXgXgXgXgX",
"gXgXgXgXgXgXgXgXjXtX<X].W.! P n q y ^ +.*.5.5.5.*.*.*.*.*.*.*.*.%.%.%.%.5.5.5.*.| ^ u q n L ! Q.].>XtXgXgXaXgXgXgXgXgXgX",
"gXgXgXgXgXgXgXgXgXgXqX9X-X(.n.F = $ y / &.;.5.5.*.*.*.*.*.*.*.*.%.;.;.%.;.;.;.$./ y $ = F n.(.=X9XtXlXgXgXgXgXgXgXgXgXgX",
"gXgXgXgXgXgXgXgXgXgXaXgXlX,X).Y > = 9 ] #.&.%.%.*.*.*.*.*.*.*.*.=.;.;.=.;.=.&.@.] 9 & > Y ).,XpXgXgXgXgXgXjXgXaXgXgXgXgX",
"gXgXgXgXgXgXgXgXgXgXgXgXgX8X'.U.J N n k l } ` #.%.1.%.*.=.&.%.%.;.*.;.&.#.| ..] k n N H E.OX8XgXgXgXgXgXgXgXgXgXgXgXgXgX",
"gXgXgXgXgXgXgXgXgXgXgXgXgXtX<X'.Q.! L m 9 y ( O.%.;.=.$.-.&.$.$.$.%.;.&.+.^ y 9 n P ! Q.].>XtXgXgXgXgXgXgXgXgXgXgXgXgXgX",
"gXgXgXgXgXgXgXgXgXgXgXgXgXgXtX9X<X[.Q D & $ u ' :.-.-.:.#.#.#.@.&.$.*.#.) y $ & N Q _.<X8XtXsXgXgXgXgXgXgXgXgXgXgXgXgXgX",
"gXgXgXgXgXgXgXgXgXgXgXgXgXgXgXgXiX:X^.Y > = q x } | @.@.$.&.-.&.#.@.+.} f 0 = > H Q.:XuXgXgXgXgXgXgXgXgXgXgXgXgXgXgXgXgX",
"gXgXgXgXgXgXgXgXgXgXgXgXgXgXgXgXgX9X].Y.Y F n k p g ) @.$.*.=.$.+.) ^ j k n F Y R.].9XaXgXgXgXjXgXgXgXgXgXgXgXgXgXgXgXgX",
"gXgXgXgXgXgXgXgXgXgXgXgXgXgXgXgXpXeX,X#X).n.L b 8 9 h | &.*.=.$.| h 9 8 b L n.).+X5XtXgXgXaXgXgXgXgXgXgXgXgXgXgXgXgXgXgX",
"gXgXgXgXgXgXgXgXgXgXgXgXgXgXgXgXgXgXlXtX,X(.! N & $ y [ +.#.-.#.[ p $ & N ! (.,X8XpXsXgXgXgXgXgXgXgXgXgXgXgXgXgXgXgXgXgX",
"gXgXgXgXgXgXgXgXgXgXgXgXgXgXgXgXjXgXgXgXrX;XQ.H 5 v r ] } ) } ) l k w , H W.&XuXjXgXgXjXjXjXgXgXgXgXgXgXgXgXgXgXgXgXgXgX",
"gXgXgXgXgXgXgXgXgXgXgXgXgXgXgXgXgXgXgXgXpX,X`.W.T L M r 9 9 9 9 r M L T U.].7XpXgXgXgXgXgXgXgXgXgXgXgXgXgXgXgXgXgXgXgXgX",
"gXgXgXgXgXgXgXgXgXgXgXgXgXgXgXgXgXgXgXgXgXtX,X%X(.H.L w # @ @ # w P n.).%X7XeXsXgXgXgXgXgXgXgXgXgXgXgXgXgXgXgXgXgXgXgXgX",
"gXgXgXgXgXgXgXgXgXgXgXgXgXgXgXgXgXgXgXgXgXgXpXtX>X(.R , X     O , R [.3XpXjXgXgXgXgXgXgXgXgXgXgXgXgXgXgXgXgXgXgXgXgXgXgX",
"gXgXgXgXgXgXgXgXgXgXgXgXgXgXgXgXgXgXgXgXgXgXgXgXtX$XU.H 4 ; ; 3 J U.%XwXgXgXgXgXgXgXgXgXgXgXgXgXgXgXgXgXgXgXgXgXgXgXgXgX",
"gXgXgXgXgXgXgXgXgXgXgXgXgXgXgXgXgXgXgXgXgXgXgXgXlX<X`.W.Q E ! P.W.`.,XtXgXgXgXgXgXgXgXgXgXgXgXgXgXgXgXgXgXgXgXgXgXgXgXgX",
"gXgXgXgXgXgXgXgXgXgXgXgXgXgXgXgXgXgXgXgXgXgXgXgXpX8X,X=X#X+X+X*X-X5XeXiXgXgXgXgXgXgXgXgXgXgXgXgXgXgXgXgXgXgXgXgXgXgXgXgX",
"gXgXgXgXgXgXgXgXgXgXgXgXgXgXgXgXgXgXgXgXgXgXgXgXgXpXpXpXtXtXtXtXtXiXsXgXgXgXgXgXgXgXgXgXgXgXgXgXgXgXgXgXgXgXgXgXgXgXgXgX",
"gXgXgXgXgXgXgXgXgXgXgXgXgXgXgXgXgXgXgXgXgXgXgXgXgXsXgXsXgXgXgXgXgXgXgXgXgXgXgXgXgXgXgXgXgXgXgXgXgXgXgXgXgXgXgXgXgXgXgXgX",
"gXgXgXgXgXgXgXgXgXgXgXgXgXgXgXgXgXgXgXgXgXgXgXgXgXgXgXgXgXgXgXgXgXgXgXgXgXgXgXgXgXgXgXgXgXgXgXgXgXgXgXgXgXgXgXgXgXgXgXgX",
"gXgXgXgXgXgXgXgXgXgXgXgXgXgXgXgXgXgXgXgXgXgXgXgXgXgXgXgXgXgXgXgXgXgXgXgXgXgXgXgXgXgXgXgXgXgXgXgXgXgXgXgXgXgXgXgXgXgXgXgX",
"gXgXgXgXgXgXgXgXgXgXgXgXgXgXgXgXgXgXgXgXgXgXgXgXgXgXgXgXgXgXgXgXgXgXgXgXgXgXgXgXgXgXgXgXgXgXgXgXgXgXgXgXgXgXgXgXgXgXgXgX",
"gXgXgXgXgXgXgXgXgXgXgXgXgXgXgXgXgXgXgXgXgXgXgXgXgXgXgXgXgXgXgXgXgXgXgXgXgXgXgXgXgXgXgXgXgXgXgXgXgXgXgXgXgXgXgXgXgXgXgXgX"
};
