/* XPM */
static char *_f12f7331d1d482386529e5c8b433980JyyeNIE3XvUp2rZe[] = {
/* columns rows colors chars-per-pixel */
"32 32 84 1 ",
"  c #47704C",
". c #DA9A2C",
"X c #DF9327",
"o c #E59025",
"O c #DE9D2E",
"+ c #E19225",
"@ c #E2992B",
"# c #E19F30",
"$ c #E6A12F",
"% c #DA9B2D",
"& c #E38D23",
"* c #DDA031",
"= c #DA9B2D",
"- c #DC9F30",
"; c #E48D23",
": c #E59025",
"> c #E38E24",
", c #E79226",
"< c #DA9A2C",
"1 c #DC9C2D",
"2 c #E38D22",
"3 c #E38F24",
"4 c #E28F24",
"5 c #E38E23",
"6 c #F5AE3A",
"7 c None",
"8 c #FDA831",
"9 c #F5A12E",
"0 c #E69328",
"q c #DA9B2D",
"w c #FFAB34",
"e c #FEAA34",
"r c #DA9B2D",
"t c #DA9A2D",
"y c #FFB740",
"u c #EFB13E",
"i c #E38E23",
"p c #F19E2D",
"a c #FFAA33",
"s c #E28F24",
"d c #FDE552",
"f c #FCE575",
"g c #FDE676",
"h c #FCE574",
"j c #FFD652",
"k c #FCE472",
"l c #FCDE6D",
"z c #FDE26F",
"x c #FFAF38",
"c c #FFC751",
"v c #FFB23B",
"b c #FDE069",
"n c #FED15C",
"m c #FFC24A",
"M c #FECC56",
"N c #FEDB5F",
"B c #FFBB43",
"V c #E2AC3D",
"C c #FFC34C",
"Z c #FDD663",
"A c #F1CB5C",
"S c #FFAC34",
"D c #FFA830",
"F c #F7C349",
"G c #EDBF4F",
"H c #FDDB67",
"J c #FDD251",
"K c #FFBD46",
"L c #EEC556",
"P c #FFD856",
"I c #FCE684",
"U c #FFB841",
"Y c #FFBE49",
"T c #EDA433",
"R c #F3B63F",
"E c #FDEA8F",
"W c #FEEFA3",
"Q c #E8BA4B",
"! c #EBA031",
"~ c #F1B23E",
"^ c #FEED9C",
"/ c #FBE57B",
"( c #F5BC43",
") c #F5BA41",
/* pixels */
"                                ",
"                                ",
"                ##              ",
"            $@X6ey6             ",
"          +4&2opSKu.%#          ",
"        $3;,!~GxvCGV-=%$        ",
"       +5:TFHfZSBMzlAVOr#       ",
"      +&7RJbfhYxmZffglG*.#      ",
"     $i7(jbfgHxUczfffgkL*t$     ",
"     3:RjNhffcSYnhfffffkGO%     ",
"    +;TJPzfflvvclffffffglV=#    ",
"    4,FjNffgnSKMkfffffffgA-%    ",
"   $&!JjbffkBxCZgfggffffflV.    ",
"   @2~jPkfgZSUMzklZZzffffhQ<#   ",
"   Xo)jNkfhCDKMnMcCCnkfffgL1@   ",
"   >oFjNhflvDUCCmKBmczfffgAOX   ",
"   >oFjNhflxDDvvvSxmnkfffgAOX   ",
"   Xo)jNkfhMxxUMMxUcHffhIEL1@   ",
"   @2~jPkbNzllkfcxmnkffhE^Q<#   ",
"   $&!JjbHPzgggHxBclffff^IV.    ",
"    4,FjNkzzbkhCxmnhffhIWA-%    ",
"    +;TJPzgbjbHxBclffh/WIV=#    ",
"     3:RjNhkbzYvmnhffIWEGO%     ",
"     $50(jbfgZxKclffEWEL*q      ",
"      +&0RJbkYvmnffgI/G*.#      ",
"       +5:TFMSBczghlAVOq#       ",
"        $s;,DDUFALQV-=%         ",
"          +98D8OO1<.%#          ",
"           $wa9>>@#             ",
"            $@$                 ",
"                                ",
"                                "
};
