/* XPM */
static char *_3e95c6bdf3249b4a6243278634a45e2YsdlXtomAl2MMN7r[] = {
/* columns rows colors chars-per-pixel */
"32 32 139 2 ",
"   c #47704C",
".  c #CF2828",
"X  c #E82A2A",
"o  c #4F7613",
"O  c #4E7414",
"+  c #363B47",
"@  c #575F72",
"#  c #6E7619",
"$  c #7AB621",
"%  c #6CA01E",
"&  c #EC2E2E",
"*  c #4D7313",
"=  c #4B7212",
"-  c #578317",
";  c #476A0F",
":  c #527B15",
">  c #507914",
",  c #4E7614",
"<  c #E92A2A",
"1  c None",
"2  c #E92626",
"3  c #4E7513",
"4  c #E72A2A",
"5  c #F63434",
"6  c #DF2222",
"7  c #466910",
"8  c #5C8A19",
"9  c #FB3535",
"0  c #537E16",
"q  c #E52727",
"w  c #64951C",
"e  c #F33030",
"r  c #61921B",
"t  c #4F7714",
"y  c #5F8F1B",
"u  c #FA3838",
"i  c #F53131",
"p  c #4A6E12",
"a  c #F83333",
"s  c #4B7112",
"d  c #6B9F1F",
"f  c #689C1E",
"g  c #71A821",
"h  c #74AE21",
"j  c #4E7413",
"k  c #76B122",
"l  c #627A5A",
"z  c #7AB624",
"x  c #7DB925",
"c  c #7EBC25",
"v  c #D81E1E",
"b  c #313D49",
"n  c #576175",
"m  c #D81F1F",
"M  c #FC3B3B",
"N  c #FC3B3B",
"B  c #F63636",
"V  c #74AC22",
"C  c #486C11",
"Z  c #6EA320",
"A  c #557F16",
"S  c #D81F1F",
"D  c #D92020",
"F  c #4B6F12",
"G  c #4C7213",
"H  c #F53131",
"J  c #578217",
"K  c #BB3134",
"L  c #A53C42",
"P  c #6C5665",
"I  c #683942",
"U  c #D83436",
"Y  c #D12727",
"T  c #496D11",
"R  c #FC3939",
"E  c #B3373B",
"W  c #78B223",
"Q  c #6FA41F",
"!  c #7DB132",
"~  c #81B635",
"^  c #78B323",
"/  c #59626F",
"(  c #81BF25",
")  c #394046",
"_  c #80BE25",
"`  c #8E4E27",
"'  c #FD9A23",
"]  c #6A9D1E",
"[  c #FD3A3A",
"{  c #679A1D",
"}  c #78B223",
"|  c #6EA41F",
" . c #62921B",
".. c #63941C",
"X. c #65971C",
"o. c #79B423",
"O. c #60901A",
"+. c #5B8919",
"@. c #70A721",
"#. c #EB3334",
"$. c #76B022",
"%. c #7DB925",
"&. c #D81E1E",
"*. c #F63636",
"=. c #5D8C19",
"-. c #F63232",
";. c #5F8E19",
":. c #ED2F2F",
">. c #6CA11F",
",. c #578317",
"<. c #598618",
"1. c #74AC21",
"2. c #5C8A19",
"3. c #71A820",
"4. c #E22626",
"5. c #568216",
"6. c #8EB855",
"7. c #537D16",
"8. c #588518",
"9. c #EDEEF3",
"0. c #648E28",
"q. c #C7CCCF",
"w. c #A8BC93",
"e. c #E72828",
"r. c #AAC788",
"t. c #649123",
"y. c #75A431",
"u. c #7A9F47",
"i. c #C2C9C5",
"p. c #B0BDAA",
"a. c #D0D3DC",
"s. c #D7D9E2",
"d. c #D7E4C6",
"f. c #DEE5D8",
"g. c #B8CC9E",
"h. c #82BB31",
"j. c #669627",
"k. c #576D4F",
"l. c #6C9C2E",
/* pixels */
"                                                                ",
"                                                                ",
"                                                                ",
"                              n b                               ",
"                              P I 2 5 N a                       ",
"                              K U e [ M B 5 &                   ",
"                              . #.-.[ [ *.e < D                 ",
"                              . #.-.[ [ *.:.q m 6 < H 9         ",
"                              . #.-.[ [ *.:.4.&.&.e.i 9         ",
"                              . #.-.[ [ *.:.4.&.&.q < #         ",
"                              . #.-.[ [ *.:.4.&.v 6 X           ",
"                              Y #.i R u u 4 4 S 2 X             ",
"                              L E a & # & X X &                 ",
"                              @ +                               ",
"                              @ +                               ",
"                              @ +                               ",
"                              @ +                               ",
"                              @ +                               ",
"                              @ +                               ",
"                    # k $ $ $ / ) $ $ $ k #                     ",
"              $ % h ^ z x c ( l 1 _ c x z W h % $               ",
"        - % Q g ! ~ %.%.%.o.} l 1 $.o.%.%.o.$.V g Z % -         ",
"    # % f d | 6.d.f.r.h.} X.;.k.1 ;.{ } %.o.$.1.@.| d f % #     ",
"  # r w { ] >.g.9.9.q.6.o.$.3.l.j.3.$.o.o.$.1.3.| >.] { w r #   ",
"  : y  .X.{ ] w.s.a.q.6.1.} } } o.} } $.1.3.| >.>.] { X. .y :   ",
"  O 8 ;. ...X.u.p.i.w.y.| @.@.@.@.@.@.| | >.] ] { X...O.=.8 O   ",
"  = J <.2.=.O.O.0.0.t.X.{ ] ] ] ] ] ] { { X.X... .O.=.+.8.A =   ",
"    3 o 0 ,.+.2.=.;.O. . ........... . . .O.;.=.+.<.5.0 o 3     ",
"      ; G * t > 7.5.8.8.<.+.+.+.+.+.+.<.8.,.5.7.> t * F ;       ",
"          # 7 T p s * o j , , > > , , j o * s p C 7 #           ",
"                  # - = ; : O O O O : ; = - #                   ",
"                                                                "
};
