/* XPM */
static char *_12de7f77db04a3efb01449c2c94eaccSb1cPCVLpbiVvm9y[] = {
/* columns rows colors chars-per-pixel */
"60 60 223 2 ",
"   c #5B7937",
".  c #526E31",
"X  c #5D725B",
"o  c #516848",
"O  c #69766C",
"+  c #DB1D1D",
"@  c #E01C1D",
"#  c #DA201F",
"$  c #E0201F",
"%  c #DB1F20",
"&  c #DC2222",
"*  c #D62726",
"=  c #DB3834",
"-  c #E52C2B",
";  c #E42727",
":  c #ED352F",
">  c #F2332F",
",  c #F22F34",
"<  c #EC3333",
"1  c #E93D3C",
"2  c #E2393B",
"3  c #F53334",
"4  c #F93435",
"5  c #F93936",
"6  c #FA3739",
"7  c #F43B3C",
"8  c #FC3B3A",
"9  c #F5373B",
"0  c #F02D30",
"q  c #E7423E",
"w  c #D73E43",
"e  c #ED3E43",
"r  c #F23F42",
"t  c #937278",
"y  c #BA6E72",
"u  c #B6525A",
"i  c #D34E54",
"p  c #E54746",
"a  c #F84847",
"s  c #F95959",
"d  c #E75657",
"f  c #E3615E",
"g  c #E55E62",
"h  c #D96666",
"j  c #E36464",
"k  c #F86767",
"l  c #EB7474",
"z  c #F87678",
"x  c #EF716E",
"c  c #5C8C16",
"v  c #5B861D",
"b  c #5D8C1A",
"n  c #578516",
"m  c #5E901A",
"M  c #618E1B",
"N  c #619216",
"B  c #63941C",
"V  c #669A1B",
"C  c #6A9C1E",
"Z  c #689619",
"A  c #6DA31D",
"S  c #66A018",
"D  c #72AA1E",
"F  c #70A61D",
"G  c #76B21E",
"H  c #7AB51E",
"J  c #5C8423",
"K  c #5D8C21",
"L  c #5D8335",
"P  c #638929",
"I  c #6A9C21",
"U  c #699628",
"Y  c #6D8F3B",
"T  c #678B35",
"R  c #6D9235",
"E  c #71933D",
"W  c #779E37",
"Q  c #739D2D",
"!  c #6EA222",
"~  c #72A522",
"^  c #74AC22",
"/  c #74A42B",
"(  c #7BAF28",
")  c #77B122",
"_  c #7AB323",
"`  c #7CB925",
"'  c #7EB82B",
"]  c #78A735",
"[  c #7FB233",
"{  c #6CA031",
"}  c #759544",
"|  c #7A9A4B",
" . c #799948",
".. c #73944F",
"X. c #7EA648",
"o. c #798D6A",
"O. c #80B92A",
"+. c #81AA3E",
"@. c #83B937",
"#. c #88C238",
"$. c #82C12A",
"%. c #829D56",
"&. c #83A849",
"*. c #8BB749",
"=. c #87A55A",
"-. c #93B959",
";. c #8EB854",
":. c #8CA765",
">. c #93AC6C",
",. c #97B967",
"<. c #9AB478",
"1. c #94AD76",
"2. c #F2807F",
"3. c #96C84A",
"4. c #99C557",
"5. c #8DC349",
"6. c #A2CE5F",
"7. c #9CC463",
"8. c #A3CB6A",
"9. c #A8CA76",
"0. c #ACD376",
"q. c #B2D67E",
"w. c #7A7C84",
"e. c #777C88",
"r. c #AF7E84",
"t. c #7F8595",
"y. c #858A94",
"u. c #878997",
"i. c #9A9C9E",
"p. c #988189",
"a. c #99A98C",
"s. c #A5B989",
"d. c #ACBE95",
"f. c #9F9FA7",
"g. c #A29EA3",
"h. c #9BA1A6",
"j. c #A6A5A9",
"k. c #ACB4B9",
"l. c #B3B3BA",
"z. c #BEADB5",
"x. c #B5969C",
"c. c #D08280",
"v. c #EA8789",
"b. c #FD8889",
"n. c #E59D9D",
"m. c #FB9899",
"M. c #EE918F",
"N. c #E3A19C",
"B. c #E49EA0",
"V. c #D4A5A8",
"C. c #E8A6A6",
"Z. c #F8A9A9",
"A. c #F1B3B3",
"S. c #F8B9B8",
"D. c #F8B5AF",
"F. c #AAC587",
"G. c #B2CD87",
"H. c #B8D48E",
"J. c #ACC299",
"K. c #B4C799",
"L. c #BAD598",
"P. c #BCCAA6",
"I. c #BBCCA7",
"U. c #BECABB",
"Y. c #B7C9A1",
"T. c #C2DD9A",
"R. c #C8E59E",
"E. c #C2CDAB",
"W. c #C4D7AA",
"Q. c #C2CEB7",
"!. c #CBD4BB",
"~. c #C9D7B6",
"^. c #CBE2A6",
"/. c #D2E5B6",
"(. c #BEBEC1",
"). c #C6C9C8",
"_. c #D4DCC7",
"`. c #CFD3D2",
"'. c #FCCCCB",
"]. c #FAC7C8",
"[. c #FAD8D8",
"{. c #EED5D8",
"}. c #D9E6C9",
"|. c #DCE3D3",
" X c #DEEBD2",
".X c #DDE8DB",
"XX c #E3EAD9",
"oX c #E6F2D7",
"OX c #FAE3DD",
"+X c #DCDAE9",
"@X c #F7DDE0",
"#X c #DFE0E2",
"$X c #E5E6E5",
"%X c #EBECEB",
"&X c #E7E9E8",
"*X c #FDE4E3",
"=X c #FCE8E7",
"-X c #FEEBEC",
";X c #F7E8E8",
":X c #EBF3E3",
">X c #EFF3EB",
",X c #EDF6E7",
"<X c #F1F6EC",
"1X c #F3FAEC",
"2X c #F6F4EA",
"3X c #EBEEF1",
"4X c #F3F6F2",
"5X c #FEF4F3",
"6X c #F5FAF3",
"7X c #FAFCF5",
"8X c #F6FEFD",
"9X c #FAFEFE",
"0X c #FFFFFD",
"qX c #FFFDFF",
"wX c #FCFFFF",
"eX c #FFFEFF",
"rX c #FEFFFF",
"tX c white",
"yX c #FEFEFE",
"uX c #FEFDFD",
"iX c #FFFFFE",
"pX c #FCF7F8",
"aX c #FFEEF1",
/* pixels */
"tXtXtXtXtXtXtXtXtXtXtXtXtXtXtXtXtXtXtXtXtXtXtXtXtXtXtXtXtXtXtXtXtXtXtXtXqXtXtXtXtXtXtXtXtXtXtXtXtXtXtXtXtXtXtXtXtXtXtXtX",
"tXtXtXtXtXtXtXtXtXtXtXtXtXtXtXtXtXtXtXtXtXtXtXtXtXtXtXtXtXtXtXtXtXtXtXtXtXtXtXtXtXtXtXtXtXtXtXtXtXtXtXtXtXtXtXtXtXtXtXtX",
"tXtXtXtXtXtXtXtXtXtXtXtXtXtXtXtXtXtXtXtXtXtXtXtXtXtXtXtXtXtXtXtXtXtXtXtXtXtXtXtXtXtXtXtXtXtXtXtXtXtXtXtXtXtXtXtXtXtXtXtX",
"tXtXtXtXtXtXtXtXtXtXtXtXtXtXtXtXtXtXtXtXtXtXtXtXtXtXtXtXtXtXtXtXtXtXtXtXtXtXtXtXtXtXtXtXtXtXtXtXtXtXtXtXtXtXtXtXtXtXtXtX",
"tXtXtXtXtXtXtXtXtXtXtXtXtXtXtXtXtXtXtXtXtXtXtXtXtXtXtXtXtX9X9XtX9XtXtXtXtXtXtXtXtXtXtXtXtXtXtXtXtXtXtXtXtXtXtXtXtXtXtXtX",
"tXtXtXtXtXtXtXtXtXtXtXtXtXtXtXtXtXtXtXtXtXtXtXtXtXtXtXtX4X$X$X3X8X9XtXtXtX9X8X9XtXtXtXtXtXtXtXtXtXtXtXtXtXtXtXtXtXtXtXtX",
"tXtXtXtXtXtXtXtXtXtXtXtXtXtXtXtXtXtXtXtXtXtXtXtXtXtXtX4X#X(.(.).4XtXqXpXtXtX0XtXtXtXtXtXtXtXtXtXtXtXtXtXtXtXtXtXtXtXtXtX",
"tXtXtXtXtXtXtXtXtXtXtXtXtXtXtXtXtXtXtXtXtXtXtXtXtXtXtX3X).g.i.j.{.*X*X@X*X-X5XpXtXtXtXtXtXtXtXtXtXtXtXtXtXtXtXtXtXtXtXtX",
"tXtXtXtXtXtXtXtXtXtXtXtXtXtXtXtXtXtXtXtXtXtXtXtX0XtXtX3Xz.p.t r.C.A.D.Z.S.].[.aXpX0XtX9X9XtXtXtX0X0XtXtXtXtXtXtXtXtXtXtX",
"tXtXtXtXtXtXtXtXtXtXtXtXtXtXtXtXtXtXtXtXtXtXtXtX0XtXtX;XV.y u i x z k k z b.m.S.{.aXtXtXtXtXtXtX0XtXtXtXtXtXtXtXtXtXtXtX",
"tXtXtXtXtXtXtXtXtXtXtXtXtXtXtXtXtXtXtXtXtXtXtXtXtXtXtX*XC.h w 2 7 8 8 8 a a k z A.[.5XqXtXtXtX8X9XtXtXtXtXtXtXtXtXtXtXtX",
"tXtXtXtXtXtXtXtXtXtXtXtXtXtXtXtXtXtXtXtXtXtXtXtXtXtXtX*XN.h q < 3 4 5 8 8 7 a s l m.'.;XpXtXtXtXtXtXtXtXtXtXtXtXtXtXtXtX",
"tXtXtXtXtXtXtXtXtXtXtXtXtXtXtXtXtXtXtXtXtXtXtXtXtXtXtX*XN.h p < 3 6 8 8 8 6 9 7 r k M.A.[.*X=X-X-X=X-X5X7XtXtXtXtXtXtXtX",
"tXtXtXtXtXtXtXtXtXtXtXtXtXtXtXtXtXtXtXtXtXtXtXtXtXtXtX=Xn.j e , 3 5 8 8 8 8 5 0 > q d l M.C.A.S.D.A.].*X5XtXtXqXtXtXtXtX",
"tXtXtXtXtXtXtXtXtXtXtXtXtXtXtXtXtXtXtXtXtXtXtXtXtX9XtX=Xn.g e , > 5 5 5 5 8 5 : - - - 2 p f l z x l m.'.-X9XtXtXtXtXtXtX",
"tXtXtXtXtXtXtXtXtXtXtXtXtXtXtXtXtXtXtXtXtXtXtXtXtX9X9X=Xn.j q < 4 6 6 8 6 6 9 < - - ; & * = = 1 a d b.].-X9XtXtXtXtXtXtX",
"tXtXtXtXtXtXtXtXtXtXtXtXtXtXtXtXtXtXtXtXtXtXtXtXtXtXtX=Xn.j p < 3 6 6 8 8 5 4 < - - ; & * * % ; 1 s m.[.6X9XtXtXtXtXtXtX",
"tXtXtXtXtXtXtXtXtXtXtXtXtXtXtXtXtXtXtXtXtXtXtXtXtXtXtX=Xn.g e < 3 5 8 8 8 8 6 3 < - ; & % # # - p z S.=XtXtXtX9XtXtXtXtX",
"tXtXtXtXtXtXtXtXtXtXtXtXtXtXtXtXtXtXtXtXtXtXtXtXtXtXtX=XB.j e < > 5 5 5 5 4 4 3 3 - ; $ @ + * q l Z.OX7XtXtXtX8XtXtXtXtX",
"tXtXtXtXtXtXtXtXtXtXtXtXtXtXtXtXtXtXtXtXtXtXtXtXtXtXtX*XN.j p < 3 5 8 8 8 7 7 < 0 - ; & # * p x Z.[.7X9XtXtXtXtXtXtXtXtX",
"tXtXtXtXtXtXtXtXtXtXtXtXtXtXtXtXtXtXtXtXtXtXtXtXtXtXtX*XN.f 1 : 4 a a s s s s a r 1 q 2 p g v.Z.[.5X9XtXtX0XtXtXtXtXtXtX",
"tXtXtXtXtXtXtXtXtXtXtXtXtXtXtXtXtXtXtXtXtXtXtXtX8XtXtX*Xn.g 1 7 d k z b.m.m.b.2.x x l l v.Z.].*X5XtXtXtXtX9XtXqXtXtXtXtX",
"tXtXtXtXtXtXtXtXtXtXtXtXtXtXtXtXtXtXtXtXtXtXtXtX9XtXtX=XB.h i f M.Z.S.'.'.'.'.S.A.A.A.A.].[.;XpX9XtXtXtXtX0XtXtXtXtXtXtX",
"tXtXtXtXtXtXtXtXtXtXtXtXtXtXtXtXtXtXtXtXtXtXtXtX0XtXtX;XV.y y c.].*X5X0XpXpX5X-XaX-XaX5X5X0XpXtX9XtXtXtX0X0XtX8XtXtXtXtX",
"tXtXtXtXtXtXtXtXtXtXtXtXtXtXtXtXtXtXtXtXtXtXtXtXtX0X0X;Xz.p.t x.$XtXtXtXtXtXtXtXtXtXtXtXtXtXtXtXtXtXtXtXtXtXtXtXtXtXtXtX",
"tXtXtXtXtXtXtXtXtXtXtXtXtXtXtXtXtXtXtXtXtXtXtXtXtXtX9X%Xl.y.w.g.$XtXtXtXtXtXtXtXtXtXtXtXtXtXtXtXtXtXtXtXtXtXtXtXtXtXtXtX",
"tXtXtXtXtXtXtXtXtXtXtXtXtXtXtXtXtXtXtXtXtXtXtXtXtXtX9X3Xk.y.e.h.$XtXtXtXtXtXtXtXtXtXtXtXtXtXtXtXtXtXtXtXtXtXtXtXtXtXtXtX",
"tXtXtXtXtXtXtXtXtXtXtXtXtXtXtXtXtXtXtXtXtXtXtXtXtXtXtX3Xl.u.e.h.%XtXtXtXtXtXtXtXtXtXtXtXtXtXtXtXtXtXtXtXtXtXtXtXtXtXtXtX",
"tXtXtXtXtXtXtXtXtXtXtXtXtXtXtXtXtXtXtXtXtXtXtXtXtXtXtX%Xl.u.w.f.%XtXtXtXtXtXtXtXtXtXtXtXtXtXtXtXtXtXtXtXtXtXtXtXtXtXtXtX",
"tXtXtXtXtXtXtXtXtXtXtXtXtXtXtXtXtXtXtXtXtXtXtXtX9X9X9X3Xk.y.w.h.%XtXtXtXtXtXtXtXtXtXtXtXtXtXtXtXtXtXtXtXtXtXtXtXtXtXtXtX",
"tXtXtXtXtXtXtXtXtXtXtXtXtXtXtXtXtXtXtXtXtXtXtXtXtX9X9X3Xk.u.w.h.&XtXtXtXtXtXtXtXtXtXtXtXtXtXtXtXtXtXtXtXtXtXtXtXtXtXtXtX",
"tXtXtXtXtXtXtXtXtXtXtXtXtXtXtXtXtXtXtXtXtXtXtXtXtXtXtX3Xl.u.w.f.&XtXtXtXtXtXtXtXtXtXtXtXtXtXtXtXtXtXtXtXtXtXtXtXtXtXtXtX",
"tXtXtXtXtXtXtXtX0X0X0X0X0XtXtXtXtXtXtXtXtXtXtXtX9XtX0X%Xk.u.e.i.%XtXtXtXtXtXtXtX0X0XtXtXtXtXtXtXtXtXtXtXtXtXtXtXtXtXtXtX",
"tXtXtXtXtXtXtXtXtXtXtXtXtXtXtXtX0XtXtXtXtXtXtXtXtXtXtX%Xk.u.e.j.%XtXtXtXtX0X0X0XtXtXtXtXtXtXtXtXtXtXtXtXtXtXtXtXtXtXtXtX",
"tXtXtXtXtXtXtXtXtXtXtXtXtXtXtX0XtXtXtXtXtXtXtXtXtXtXtX%Xk.y.w.i.$XtXtXtXtX0X0X0XtXtXtXtX0X0XtXtXtXtXtXtXtXtXtXtXtXtXtXtX",
"tXtXtXtXtXtXtXtX0X0XtXtXtXtX0X0XtXtXtXtXtXtXtXtXtXtXtX%Xk.y.w.h.&XtXtXtXtXtXtXtXtXtXtX0X0X0X0X0XtXtXtXtXtXtXtXtXtXtXtXtX",
"tXtXtXtXtXtXtXtX0XtXtXtXtXtXtXpXtXtX9X6X6X1X1X1X1X1X1X.Xk.t.e.i.|.1X1X1X,X1X6XpX6X6X7X0XtXtXtXtX0XtXtXtXtXtXtXtXtXtXtXtX",
"tXtXtXtXtXtXtXtXqXtXtXtXtXtX9X4X,XoXoX X}././.^.^.^.R.L.a.O X o.G.^.R.^.^././.}.XXoXoX>X6X9XtXtX0X0XtXtXtXtXtXtXtXtXtXtX",
"tXtXtXtXtXtXtXtXtXtXtX6X1X:XoX}.^.^.T.H.q.0.8.8.4.3.3.*...X o   *.4.4.4.6.8.0.q.H.L.W./.}.oX,X1X1X7X0XtXtXtXtXtXtXtXtXtX",
"tXtXtXtXtXtXtXtX7X6X:X X/.W.H.G.9.8.7.4.5.#.#.#.@.O.$.] ..X o   ^ @.' #.#.#.5.5.3.4.7.9.G.L.W./.XX:X4X0XtXtXtXtXtXtXtXtX",
"tX0X0X0XtXtX9X,X:X X~.H.9.4.-.7.;.;.*.@.O.` ` ' ` ^ ( / } X o   ~ ^ _ _ ` ' ' _ _ _ _ [ @.*.7.8.L.W. X:X2X7X7X0XtXtXtXtX",
"tXtXtXtXtX6X:X}.L.F.,.*.*.*.-.0.L.L.G.7.*.@.` ) D C I U   o o . N V A ^ ) ` ` ` _ ) ) _ ( ] [ *.;.,.F.I.}.:X6XtXtXtXtXtX",
"tXtXtXtX6X XW.G.*.+./ A / *.9.^..X.X_.Y.,.*.O.H ~ V V M L o . . b B I D ^ ` ` _ _ ) ^ ^ D A A ~ ~ / ] -.F.~.XX8X0XtXtXtX",
"tXtXtX4X XL.,.&./ ! S S ] ,.I..X>X%X#XQ.F.;.@._ ^ ! ! I R T L P I ! ~ ^ ) _ _ G ^ ^ ^ D D A A A ! C I / &.,.L.}.<X0XtXtX",
"0XtX9X XL.,.] I U I C V ] <.Q.+X3X&X+X`.J.,.@._ G D ^ ^ ! { Q ! D ^ ^ _ _ _ ) ^ ^ ^ ^ D A A A A I I C V C W -.H.XX7XtXtX",
"0XtX4X!.,.W C Z I V V V ] ,.P.`.+X+X+X`.K.,.[ _ G G G G ^ ^ ^ ) G G ) ) ) ) ^ ^ D D F ! ! ! ! I I C C V V U  .,._.1XtXtX",
"tXtX1XW.&.B V B V V V V Q =.s.Q.`.`.`.U.F.;.] ^ D D D ^ ^ ^ ^ ^ ^ ^ ^ ^ ^ ^ D ^ A A A A ! I I I V V V N N M U X.~.1XtXtX",
"tXqX1XW. .M B K B N Z V U | 1.J.U.).U.J.<.X./ F ^ ^ ~ ~ ^ D ^ ~ ~ ^ ^ ^ A A A A ! A A C C C C V V I V M N M P ] E.,XtXtX",
"0XtX4XE.=.M c K N N N N Z U | :.a.a.<.:.X.{ I S A A A A A A A A A A A ! ! A C C C V V V V V V B Z N b b b v U X.Q.1XtXtX",
"tXtX4X!.>.R b b b b b m m B U R E E E R U U I C C I I I C C C C I C I C C C V V I I V Z B N N M M b c c c v E =.!.1XtXtX",
"tXtX6X XK.=.R v n v v b b b c c c c b N B B V V I I I I I V V C C I V V V V Z Z B B B N M b b b K b n n v T :.K.|.7XtXtX",
"tXtX0X<X}.J.:.E P J v b b b b b b b b m N N N N V V V V B B V V B B B B N N N N b b b b b b b b J J J P E :.K.}.>X0XtXtX",
"tXtX0X0X>X|.I.s.=.| R P K v n v v v b b b b b b c c b b c c c c m m m m b b b b c c c n n n v J P Y | :.s.I.|.>X7XtXtXtX",
"0XtXtXtXqXpX:X|.Q.d.>.=. .Y P P J J v v v v v v b b b b b b b b b b b v v v v v v J J J J T Y } =.>.d.E.|.:X6XtXtXtXtXtX",
"0XtXtXtXtXtXtX6X%X|.!.P.J.s.1.:.=.%.| } E Y T T J J J J J v J J J J J P P T Y Y } | %.%.:.1.s.d.P.!.|.$X<X0XtXtXtXtXtXtX",
"0XtXtXtX0X7X0XtX0X0X7X>X$X|.!.E.Y.d.s.<.>.:.=.|  . .} } } E E E } } } | %.=.:.>.<.s.J.P.E._.|.XX>XpXtXtX0X0XtXtXtXtX0X0X",
"tXtXtXtXtXtXtXtXtXtXtXtX6X4X<X%XXX|.|._._.!.!.!.E.E.I.P.P.P.P.P.E.E.E.E.~.!.!._._.|.XXXX:X>X<X6XtXtXtXtXtXtXtXtXtXtXtXtX",
"tXtXtXtXtXtXtXtXtXtXtXtXtXtX0X0XtXtX0X7X7X6X6X6X4X4X4X4X<X<X<X<X<X<X<X<X4X6X6X7X6X6X7X0X0XtXtXtXtXtXtXtXtXtXtXtXtXtXtXtX",
"tXtXtXtXtXtXtXtXtXtXtXtXtXtXtXtXtXtXtXtXtXtXtXtXtXtXtXtXtXtXtXtXtXtXtXtXtXtXtXtXtXtXtXtXtXtXtXtXtXtXtXtXtXtXtXtXtXtXtXtX",
"tXtXtXtXtXtXtXtXtXtXtXtXtXtXtXtX0X0XtXtXtXtXtXtX0X0X0X0X0X0X0X0XtXtXtXtXtXtXtXtXtXtXtXtXtXtXtXtXtXtXtXtXtXtXtXtXtXtXtXtX"
};
