/* XPM */
static char *_316cf5372fc43c2909fe66d85b12b71GtxBraTnsG2qfs2g[] = {
/* columns rows colors chars-per-pixel */
"60 60 256 2 ",
"   c black",
".  c #010101",
"X  c #020202",
"o  c gray1",
"O  c #040404",
"+  c gray2",
"@  c #060606",
"#  c #070707",
"$  c gray3",
"%  c #090909",
"&  c gray4",
"*  c #0B0B0B",
"=  c #0C0C0C",
"-  c gray5",
";  c #0E0E0E",
":  c gray6",
">  c #101010",
",  c #111111",
"<  c gray7",
"1  c #131313",
"2  c gray8",
"3  c #151515",
"4  c #161616",
"5  c gray9",
"6  c #181818",
"7  c #191919",
"8  c gray10",
"9  c #1B1B1B",
"0  c gray11",
"q  c #1D1D1D",
"w  c #1E1E1E",
"e  c gray12",
"r  c #202020",
"t  c gray13",
"y  c #222222",
"u  c #232323",
"i  c gray14",
"p  c #252525",
"a  c gray15",
"s  c #272727",
"d  c #282828",
"f  c gray16",
"g  c #2A2A2A",
"h  c gray17",
"j  c #2C2C2C",
"k  c #2D2D2D",
"l  c gray18",
"z  c #2F2F2F",
"x  c gray19",
"c  c #313131",
"v  c #323232",
"b  c gray20",
"n  c #343434",
"m  c #353535",
"M  c gray21",
"N  c #373737",
"B  c gray22",
"V  c #393939",
"C  c #3A3A3A",
"Z  c gray23",
"A  c #3C3C3C",
"S  c gray24",
"D  c #3E3E3E",
"F  c #3F3F3F",
"G  c gray25",
"H  c #414141",
"J  c gray26",
"K  c #434343",
"L  c #444444",
"P  c gray27",
"I  c #464646",
"U  c gray28",
"Y  c #484848",
"T  c #494949",
"R  c gray29",
"E  c #4B4B4B",
"W  c #4C4C4C",
"Q  c gray30",
"!  c #4E4E4E",
"~  c gray31",
"^  c #505050",
"/  c #515151",
"(  c gray32",
")  c #535353",
"_  c gray33",
"`  c #555555",
"'  c #565656",
"]  c gray34",
"[  c #585858",
"{  c gray35",
"}  c #5A5A5A",
"|  c #5B5B5B",
" . c gray36",
".. c #5D5D5D",
"X. c gray37",
"o. c #5F5F5F",
"O. c #606060",
"+. c gray38",
"@. c #626262",
"#. c gray39",
"$. c #646464",
"%. c #656565",
"&. c gray40",
"*. c #676767",
"=. c #686868",
"-. c DimGray",
";. c #6A6A6A",
":. c gray42",
">. c #6C6C6C",
",. c #6D6D6D",
"<. c gray43",
"1. c #6F6F6F",
"2. c gray44",
"3. c #717171",
"4. c #727272",
"5. c gray45",
"6. c #747474",
"7. c gray46",
"8. c #767676",
"9. c #777777",
"0. c gray47",
"q. c #797979",
"w. c gray48",
"e. c #7B7B7B",
"r. c #7C7C7C",
"t. c gray49",
"y. c #7E7E7E",
"u. c gray50",
"i. c #808080",
"p. c #818181",
"a. c gray51",
"s. c #838383",
"d. c #848484",
"f. c gray52",
"g. c #868686",
"h. c gray53",
"j. c #888888",
"k. c #898989",
"l. c gray54",
"z. c #8B8B8B",
"x. c gray55",
"c. c #8D8D8D",
"v. c #8E8E8E",
"b. c gray56",
"n. c #909090",
"m. c gray57",
"M. c #929292",
"N. c #939393",
"B. c gray58",
"V. c #959595",
"C. c gray59",
"Z. c #979797",
"A. c #989898",
"S. c gray60",
"D. c #9A9A9A",
"F. c #9B9B9B",
"G. c gray61",
"H. c #9D9D9D",
"J. c gray62",
"K. c #9F9F9F",
"L. c #A0A0A0",
"P. c gray63",
"I. c #A2A2A2",
"U. c gray64",
"Y. c #A4A4A4",
"T. c #A5A5A5",
"R. c gray65",
"E. c #A7A7A7",
"W. c gray66",
"Q. c #A9A9A9",
"!. c #AAAAAA",
"~. c gray67",
"^. c #ACACAC",
"/. c gray68",
"(. c #AEAEAE",
"). c #AFAFAF",
"_. c gray69",
"`. c #B1B1B1",
"'. c #B2B2B2",
"]. c gray70",
"[. c #B4B4B4",
"{. c gray71",
"}. c #B6B6B6",
"|. c #B7B7B7",
" X c gray72",
".X c #B9B9B9",
"XX c gray73",
"oX c #BBBBBB",
"OX c #BCBCBC",
"+X c gray74",
"@X c gray",
"#X c gray75",
"$X c #C0C0C0",
"%X c #C1C1C1",
"&X c gray76",
"*X c #C3C3C3",
"=X c gray77",
"-X c #C5C5C5",
";X c #C6C6C6",
":X c gray78",
">X c #C8C8C8",
",X c gray79",
"<X c #CACACA",
"1X c #CBCBCB",
"2X c gray80",
"3X c #CDCDCD",
"4X c #CECECE",
"5X c gray81",
"6X c #D0D0D0",
"7X c gray82",
"8X c #D2D2D2",
"9X c LightGray",
"0X c gray83",
"qX c #D5D5D5",
"wX c gray84",
"eX c #D7D7D7",
"rX c #D8D8D8",
"tX c gray85",
"yX c #DADADA",
"uX c gray86",
"iX c gainsboro",
"pX c #DDDDDD",
"aX c gray87",
"sX c #DFDFDF",
"dX c gray88",
"fX c #E1E1E1",
"gX c #E2E2E2",
"hX c gray89",
"jX c #E4E4E4",
"kX c gray90",
"lX c #E6E6E6",
"zX c #E7E7E7",
"xX c gray91",
"cX c #E9E9E9",
"vX c #EAEAEA",
"bX c gray92",
"nX c #ECECEC",
"mX c gray93",
"MX c #EEEEEE",
"NX c #EFEFEF",
"BX c gray94",
"VX c #F1F1F1",
"CX c gray95",
"ZX c #F3F3F3",
"AX c #F4F4F4",
"SX c gray96",
"DX c #F6F6F6",
"FX c gray97",
"GX c #F8F8F8",
"HX c #F9F9F9",
"JX c gray98",
"KX c #FBFBFB",
"LX c gray99",
"PX c #FDFDFD",
"IX c #FEFEFE",
"UX c white",
/* pixels */
"LXUXUXUXUXUXUXUXUXUXPXUXUXIXUXIXUXPXIXUXUXUXUXIXUXUXIXPXUXUXUXUXUXUXIXIXUXUXUXPXUXIXUXIXUXUXLXUXUXUXUXIXUXPXIXUXIXUXUXLX",
"UXIXLXIXUXGXZXDXCXFXGXFXSXJXUXLXPXKXHXGXFXSXSXGXSXAXFXJXKXIXPXGXHXSXDXFXAXAXFXGXFXKXUXJXHXPXHXSXCXSXAXSXDXGXLXPXUXUXUXPX",
"UXUXPXKXFXnXsXuXiXuXyXuXuXkXVXcXnXNXxXsXiXtXrXiXyXiXkXMXMXCXZXNXcXjXaXuXyXiXiXtXgXxXCXmXvXBXvXaXyXuXpXuXqXyXvXFXIXIXUXUX",
"IXIXPXGXzX:XT.N.x.l.c.D.~.*X,X_./.*X;X].P.N.z.v.b.F.].-XoX|. XoX>X XH.c.z.k.m.Y.{.#X*X)./.;X=XQ.S.c.z.v.B.Q.<XzXDXLXIXUX",
"UXHXSXvX,XZ.%.P l l b U -.x.h.| } w.l.q.[ M g v b ) e.m.0.%.&.9.M.9.R m m g b { w.h.i...X.k.x.*.T v h c K *.Z.;XkXDXPXUX",
"UXKXnX;XF.i.O.V 9 2 t U %.=.^ f g J X.:.[ z 2 2 f W =.>.H s d K ;.,./ h 8 5 k ) -.} H i f ^ %.@.E s < 7 Z O.t.J.,XnXKXIX",
"PXKXjXU.&.$.:.' c h S $.-.P t & o < m  .=._ M s ' &. .L 6 + X 6 S @.,.Y a x ( =.#.B 1 + * t I 1.@.J j v [ ,.O.@.~.fXGXPX",
"UXAXiXC.L N ' +.-.&.+.o.Y u - o   + 7 V ' *.=.+.+.#.G r + O   & u Z o.=.o.*.=.( V 6 o . O $ t T X.*.<.%.@._ Z J Z.tXDXPX",
"UXAXpXn.k 0 c ;.S.H.l.^ y ;     .   O > H 6.V.A.8.W r O X   . . . r ! 5.F.m.7.J 2 O .     X * t ! x.G.S.-.v 8 z m.pXFXPX",
"PXKXsXn.l 1 g -.J.Q.v.E 8 @   X       = F e.G.G.y.W 4   .         6 R r.P.G.w.D =           $ q ~ v.Q.I.;.x 4 h c.iXFXLX",
"LXHXyXn.n u Z +.h.n.w.` v < X .   o $ w P 5.h.j.1.( a = O X   # = a / 4.u.g.8.U 9 * O X . + 2 h ` q.z.h.$.H a n n.pXGXUX",
"UXDXuXF.Y R %.X._ / ) $.{ z < +   $ y Q +.+.^ T ..#.! z -     = j ! $. .I ` %.+./ s @   o : c { #.' ~ _ X.%.! ! D.pXSXUX",
"UXDXfX(.=.@.:.Q s q l { $.~ m 4 > t H =.@.K y 7 F | @.~ p : > i ~ $...A 8 i H @.1.U q : 5 j ~ :.[ b q p Y ;.*.2./.gXCXIX",
"PXJXxX&Xc.%.P a ; + < b / &.| n N W +.O.F 0 % & 4 M | %.W N C W *.[ N 8 + # 6 H ..$.~ b V { %.^ c 3 + # y Y &.b.*XMXDXUX",
"UXUXMX=Xx./ t % X   o > x } ;.%.*.,.*.L w O     o 4 D ..-.:.,.*.O.V 3 @ . . + w D *.5.%.@.,. .z < # .   * t Q k.*XCXKXUX",
"UXJXnX`.@.g - .   . o . 1 N $.V.G.t.! 7 +   O   O . 6 S 4.A.D.9.S 6 +     .   # e E r.J.B.%.N < +       O $ d ..'.cXJXUX",
"UXHXNX).O.h %     . X   : m *.H.P.a.W 3 O     .   X 1 B r.I.F.e.C 3 O     X . . 1 W u.T.S.%.B = o   X     $ a { _.vXKXUX",
"UXJXCX*Xr.G 1 . .   X $ t ! 2.t.s.e. .z 1 O . .   - j ^ 4.d.s.6.~ h = .   o X > l ..w.s.u.2./ y O   o . o 3 F u.$XVXLXUX",
"UXHXcX=Xx.X.M 8 +   % a L #.*.T R | @._ b 2 . . ; f / %.' E ^ [ %.~ d ; . o : n ^ +.| I W $.O.K d % . o 4 N ] z.&XnXFXUX",
"UXGXsX'.r.,.X.A 2 ; e W #...L 0 5 z ^ ;.' x , - h Q &.o.b 6 9 v o.&.~ j = , j ] ;.( b 5 e K } %.W w % 1 B O.*.t.].gXZXUX",
"UXGXpXU.{ [ &._ S D I +.@.G w # o , x } +.` F B / #.[ Z 4 O o 5 V [ %.) M D _ +...b 2 o # w S %...I S K _ *.{ O.T.sXDXUX",
"UXDXuXC.M l ~ #.6.r.3.X.L w + . . O , z / 3.q.5.1.+.N < + X   # < M O.4.4.q.6.( x , X     O 8 H +.6.t.q.#.^ m D A.pXFXIX",
"UXFXtXv.g 3 b *.V.H.h./ p *         X , D 9.S.A.q.~ e X     .   o q ! w.D.Z.r.H < O   X     * u ) f.D.B.%.B w c n.iXDXLX",
"LXLXiXb.b 3 u +.Z.H.j.T 5 #   X .   o - V 2.F.J.8.S 5 @     O   + 2 G 5.I.C.5.B * o   .     % 6 Y h.K.S.O.s 1 z b.pXFXIX",
"UXAXuXM.M d ` $.7.u.2.| D 4 o X   X = l ~ 3.0.7.>...b : @ X   + < b ..1.6.w.:._ g - .     o 5 S  .1.y.3.;./ h B m.tXKXUX",
"UXDXiXS.( Q &.X.Q T ^ *.X.m 3 o   = d ^ @.$.~ F O.&.( b > o . , k ~ ;.] J ( +.../ d * . O 1 b X.$./ E E O.&.! ~ G.tXSXUX",
"UXHXkX'.t.<.+.H t 4 a Q o.} G 6 2 k ~ %.' B w 6 x ^ @.X.x 6 7 c | @.] c 4 0 N ] $.! l 2 0 D ] #.~ a 4 e G #.,.q.[.hXSXUX",
"UXJXMX;Xn.&.F e .   ; l Q &...B B ^ &.+.A 1   o < x ] ;./ S S E >.' z , $   ; S o.$./ n Z X.%./ h *   + 0 H =.n.=XNXHXUX",
"UXLXNX#Xe.J 8 * @   . ; s E =.9.e.4.' c 3 O   O X ; z ! -.9.e.<.^ n 2 o X   O 0 n ' 4.q.9.:.R p , +     % 0 L r.#XNXKXIX",
"UXIXBX].#.f @       X X < N ;.S.P.s.W 6 # X     O + 8 N 7.J.K.0.Z 1 o X   . + . 6 Q g.I.C.:.V :   X     . + a @. XMXUXUX",
"UXPXCX}.=.l $     . X   = Z 1.Z.J.d.^ 5 +   . o   o 9 A 8.G.G.r.J 4 o O     . O 3 ^ g.K.B.<.A =         X # h &.XXNXUXUX",
"UXHXVX#X0.G 3 & o   @ : p E *.0.0.6.} l 7 +     # 3 l W -.0.9.1.W b 2 o o   X 8 m [ 2.w.8.&.R a : +   . % 6 J 9.@XNXLXIX",
"UXDXcX,XN.&.L w X   * h ~ =.+.C Z ^ %.O.A < . o > l ] <.( A S ~ ;. .k 2 . O , A ..#._ m A O.$./ k & . O 0 K *.B.:XnXFXUX",
"LXGXgX{.w.-.+.A t 7 s ~ @.` V 8 < g ! #.[ N r 7 n ~ @.[ b 4 6 x  .O.~ N 7 q m ' &.~ k , 9 G [ +.! s 6 q F %.*.r.'.jXDXUX",
"PXKXyXD.Q ^ ;.+.T I ^ *.o.M 3 @ X - g ~ $.o.W F  .-.[ l < X o > l ^ ;.| F T o.O./ d %   o < m o.%./ Y R ..,.W ! F.pXSXUX",
"UXGXtXm.n j T =.q.t.3.| Z 5 O     X = d / 4.e.8.<.{ n ; $   . O > x X.<.7.w.4.~ g - X @ o . 4 D } 6.y.w.$.Q h M b.iXFXPX",
"UXZXpXM.x 7 d X.Z.K.u.Y q $ o     . . ; C 6.Z.G.6.H 5 + +     X $ 3 J 6.K.A.<.C *           $ 5 U s.F.V.o.h 6 b x.pXGXPX",
"IXSXdXz.g 6 l =.C.L.g.( y #       . X > S 0.A.F.t.E 0 X     .     9 W 9.K.F.4.H 2 + . .   . - y / j.H.A.&.l 8 z b.pXFXIX",
"UXFXsXv.M z ! -.6.q.4.@.J 8 +     O < l ) 3.0.4.2.O.Z 5 o O + + , A &.<.3.9.2.[ z , .     . 8 H $.7.q.7.=.~ B G Z.pXDXIX",
"UXCXiXP.| _ *./ H A L X.+.G w & O 1 b ` +.` J B ( +.' S 6 X . 6 D / @.) V D ' ..[ n 1 o $ w G @. .R H Z ` &.] X.P.dXSXPX",
"UXAXgX Xe.-.%.V 1 = 9 W =.{ A e 1 k ^ ,.| v ; * h / &.o.B 6 4 m +.#.~ l # 2 z ` 2./ z 4 9 F ..=.! 9 % < V +.>.t.[.fXDXUX",
"UXJXxX$Xk.| V 6 O   & a L $.=.U ^ ..o.^ z 1 O + ; s ~ %.] W / [ +.! s -   + > M ^ @.o.E ! &.+.H a & X O 5 B  .k.*XmXKXUX",
"UXUXCX&Xi.H 1 . X   o @ 0 / 7.0.i.q...c 2 O     X & k _ 3.g.h.2.) x &   .     1 z O.e.y.w.2./ y #       o 3 J t.$XBXPXUX",
"PXJXMX(.} u @   . . X   ; b &.K.I.p.W 3 O   X   . X < m q.Y.K.e.B < X .   X .   4 Q i.R.H.&.n ,       . . o p [ ).cXLXUX",
"UXJXbX^. .f = X     X o 3 N #.V.S.y.^ 8 +   X .   @ 8 S 9.A.B.9.S 5 O .   . + + 9 ! e.H.V.$.M 1 @ o     X $ h  .`.vXLXUX",
"UXUXBX=Xk.^ r % X   + , h [ ,.$.&.1.&.H w #     O 1 D O.-.:.1.&.o.D 3 .     + w G &.2.&.&.;.[ x , @     % y ^ h.*XCXPXIX",
"KXJXvX&Xc.%.L u ; # 2 b ! $. .m N ~ +. .F w % # 7 v [ %.R N D E $.{ N 7 @ & 7 H O.#.^ m V { $.) x 1 $ & u U *.x.&XnXJXUX",
"UXDXsX!.=.+.<.Q s e h { ;.^ z 3 - t J *.@.J r 8 D X.$.~ s ; - s ~ +...G 6 i G &.,.L t : < l / ;...k 9 u U ;.;.1.).pXAXUX",
"LXGXuXJ.I T #...` ^ ) #.| m 2 O . @ f E ..+.( Y  .$.Q l : .   ; l ! $. .T ^ #.O./ d @   @ : k  .O.] ( / ..%.R ^ A.aXAXUX",
"UXHXuXn.v i S %.x.v.w.' l > O       * r U 6.g.g.1.~ d = o   X + - a ! 3.f.k.8.E q = .   o + , j [ 9.l.f.%.K s B M.pXAXUX",
"PXDXaXc.l < p ,.F.Q.x.~ q $ +   .     = A y.J.K.u.Y 7       o     4 T e.J.H.w.S % o .       $ 8 ) z.Q.T.>.x < f b.iXSXIX",
"UXSXsXn.b 9 l %.G.U.g.( p &     X . O 2 G 8.N.Z.4.R r +     X   + e ! 8.V.V.9.S 1 +         * u ~ f.P.D.%.m 8 N n.pXDXLX",
"UXSXpXV.H A [ @.%.&.+. .I r & +   X 3 M ` #.%.$.=.+.F q # .   & 5 D +.$.@.%.-._ C 5 o X o & u Y | *.>.=.o.` m K C.pXFXPX",
"UXDXfX!.#.X.2.` b l S @.:.T y % @ 8 C O.-.Q c p ~ =.+.K 8 # O 7 L &.:.E f k ! &.+.M 1 O % t I -.%.L x b ' 6.+.&.Q.dXFXUX",
"UXKXnX1XA.w.%.Z 7 , q P $.*.! d i F ] &.' l 6 < h ~ >.*.P d h K &.=.T l 4 7 z ~ ;.} J a h ~ %.%.Y s 4 6 C o.e.D.<XnXHXUX",
"UXPXSXzX1XD.&.G z l n R ;.z.g.X.| y.l.r.] b j c N ! r.v.t.O.*.9.M.y.E Z h g m | e.j.y.{  .h.z.;.W n h z I @.G.2XlXGXKXUX",
"UXUXLXSXhX;XW.V.v.v.b.V.!.*X*X`.`.+X*X{.J.b.x.v.x.J.}.*X@X}. X$X;X'.G.n.z.z.N.H.].%X#X).'.=X$X~.B.n.c.v.B.E.,XxXGXKXIXUX",
"IXPXIXIXGXnXsXwXtXtXyXyXfXmXCXnXmXBXmXjXiXyXuXuXrXuXgXmXCXVXNXMXmXjXpXiXuXtXyXpXdXMXCXvXbXZXnXiXuXyXyXyXtXiXcXDXKXPXUXUX",
"UXUXIXIXPXJXFXDXDXSXDXSXCXSXKXPXLXJXFXAXDXGXFXAXGXSXSXHXPXPXPXIXFXSXSXDXFXDXDXDXAXJXIXLXKXLXHXAXAXAXDXFXFXFXJXPXIXUXUXUX",
"UXUXIXIXPXPXIXIXUXIXUXUXUXIXUXUXUXUXUXUXUXUXUXLXUXUXUXUXIXLXIXUXUXUXUXPXPXIXUXUXUXUXUXIXPXIXUXUXUXUXIXPXIXUXUXUXUXUXUXUX"
};
