/* XPM */
static char *f41b6d82e202456aa46df3ff9b151492X2ergm1XG7w1QzM9[] = {
/* columns rows colors chars-per-pixel */
"32 32 32 1 ",
"  c #47704C",
". c black",
"X c None",
"o c black",
"O c black",
"+ c black",
"@ c black",
"# c black",
"$ c black",
"% c black",
"& c black",
"* c black",
"= c black",
"- c black",
"; c black",
": c black",
"> c black",
", c black",
"< c black",
"1 c black",
"2 c black",
"3 c black",
"4 c black",
"5 c black",
"6 c black",
"7 c black",
"8 c black",
"9 c black",
"0 c black",
"q c black",
"w c black",
"e c black",
/* pixels */
"                                ",
"  7*444,2,54442,,24445,2,444*7  ",
" 70@++@-8$3++.-##-.++3$8-@++@07 ",
" 5@$o.:6e=%#+O@ee@O+1%=e6:8o$@5 ",
" *+o;>6eee9$;1eeee1;$=eee6>;o+* ",
" *+.>-oeee&:>#XeeX#>:&eeeo->8+* ",
" *@:oo:.e&O@&%#XX#%&@$&eo:.6:#* ",
" ,-6eeo$<O@eeq%##%qee@O<$.ee6-, ",
" 2<eeee<03eeee&;;&eeee30<eeee82 ",
" ,$=ee&O3$.eeX#OO#Xeeo$3O&ee=$, ",
" 5%%=&O@eo:.X#%==%#Xo:.e@O&93%5 ",
" *+1$$@eeeo:O%=ee9%O:.eee@:$#6* ",
" *++;>&eeeXOw<eeee<wOXeee&>;++* ",
" 4.O1#%qeX#%<$.eeo$<3#Xe=%#1O.4 ",
" 2-@eX#%&#%=eo:.o:.e9%#&%#Xe@-2 ",
" ,#eeeX#;O=eeeo->oeee=O;#Xeee#, ",
" ,#eeeX#;O=eeeo->oeee=O;#Xeee#, ",
" 2-@eX#%&#%=eo:.o:.e9%#&%#Xe@-2 ",
" 4.O1#%qeX#%<$.eeo$<3#Xe=%#1O.4 ",
" *++;>&eeeXOw<eeee<wOXeee&>;++* ",
" *+1$$@eeeo:O%=ee9%O:.eee@:$16* ",
" 5%%=&O@eo:.X#%==%#Xo:.e@O&9%%5 ",
" ,$=ee&O3$.eeX#OO#Xee.$3O&ee=$, ",
" 28eeee<03eeee&;;&eeee30<eeee82 ",
" ,-6eeo$<O@eeq%##%qee@O<$.ee6-, ",
" *@:oo:.e&O@&%#XX#%&@$&eo:.6:#* ",
" *+.>-.eee&:>#XeeX#>:&eeeo->8+* ",
" *+o;>6eee9$;1eeee1;$=eee6>;o+* ",
" 5@$o.:6e=%1+O@ee@O+1%=e6:8o$@5 ",
" 70@++@-8$3++.-##-.++3$8-@++@07 ",
"  7*444,2,54442,,24445,2,444*7  ",
"                                "
};
