/* XPM */
static char *_1693583361e47faba6dfa30ed104858aJ3U11xv7aABasm2[] = {
/* columns rows colors chars-per-pixel */
"60 60 243 2 ",
"   c #39181E",
".  c #3B2224",
"X  c #4F2C1E",
"o  c #4A2624",
"O  c #522324",
"+  c #55252A",
"@  c #5C242A",
"#  c #5B2B2C",
"$  c #572928",
"%  c #5B3826",
"&  c #5B2C31",
"*  c #562B32",
"=  c #4A3637",
"-  c #5C3533",
";  c #5A3938",
":  c #4A312E",
">  c #64252C",
",  c #6A252B",
"<  c #642A2C",
"1  c #6A2B2D",
"2  c #6A2727",
"3  c #732B2D",
"4  c #76262C",
"5  c #6C3A2D",
"6  c #67372A",
"7  c #723B2C",
"8  c #78372C",
"9  c #642C32",
"0  c #6A2A31",
"q  c #732C33",
"w  c #7C2C32",
"e  c #772732",
"r  c #643434",
"t  c #6C3333",
"y  c #653A3C",
"u  c #673937",
"i  c #7C3233",
"p  c #723B31",
"a  c #74343A",
"s  c #783939",
"d  c #571E25",
"f  c #584538",
"g  c #514130",
"h  c #6B442C",
"j  c #654529",
"k  c #77472C",
"l  c #6A5529",
"z  c #77552A",
"x  c #6A4936",
"c  c #794733",
"v  c #7A5734",
"b  c #6B5A3E",
"n  c #7A6738",
"m  c #593D40",
"M  c #6C3E41",
"N  c #783A43",
"B  c #574A43",
"V  c #5A5248",
"C  c #565350",
"Z  c #684749",
"A  c #744647",
"S  c #6B554C",
"D  c #6E4F52",
"F  c #784B52",
"G  c #665554",
"H  c #755A5B",
"J  c #785457",
"K  c #74524E",
"L  c #7C6B59",
"P  c #776551",
"I  c #705F62",
"U  c #786B6A",
"Y  c #787273",
"T  c #852C2E",
"R  c #832B33",
"E  c #8C2E34",
"W  c #892F39",
"Q  c #8C3235",
"!  c #8B3B33",
"~  c #863738",
"^  c #943335",
"/  c #9C3336",
"(  c #983739",
")  c #903030",
"_  c #A2353B",
"`  c #A7373D",
"'  c #B3393F",
"]  c #B1353D",
"[  c #A22E35",
"{  c #87492D",
"}  c #875A2E",
"|  c #874436",
" . c #944833",
".. c #8A5D33",
"X. c #855936",
"o. c #945735",
"O. c #915E2D",
"+. c #88672D",
"@. c #8C6332",
"#. c #886935",
"$. c #976834",
"%. c #8C7135",
"&. c #9A7936",
"*. c #996B2B",
"=. c #A77938",
"-. c #A97535",
";. c #8B3C41",
":. c #853E46",
">. c #973A43",
",. c #AC3D43",
"<. c #A63C46",
"1. c #B43A42",
"2. c #BA3942",
"3. c #B73643",
"4. c #89464B",
"5. c #974348",
"6. c #824851",
"7. c #87575B",
"8. c #965256",
"9. c #8D4F4C",
"0. c #A94145",
"q. c #896B46",
"w. c #887959",
"e. c #967B54",
"r. c #8A724B",
"t. c #A87740",
"y. c #8C5E69",
"u. c #8B6366",
"i. c #866666",
"p. c #936A6B",
"a. c #926C72",
"s. c #8A7879",
"d. c #947D7D",
"f. c #987678",
"g. c #887267",
"h. c #A37578",
"j. c #A86F75",
"k. c #7D827E",
"l. c #A4843B",
"z. c #AC853C",
"x. c #A88737",
"c. c #B58D3A",
"v. c #B88C39",
"b. c #BB943D",
"n. c #B99338",
"m. c #B48C2D",
"M. c #C3963B",
"N. c #CCA23D",
"B. c #CFA336",
"V. c #D6A73C",
"C. c #D9B13F",
"Z. c #EAB83E",
"A. c #EBB63F",
"S. c #9C8654",
"D. c #99854D",
"F. c #A88946",
"G. c #B38942",
"H. c #BA9749",
"J. c #A68A54",
"K. c #AC945A",
"L. c #B99953",
"P. c #A9904E",
"I. c #988969",
"U. c #948876",
"Y. c #998E72",
"T. c #A9956F",
"R. c #C69B45",
"E. c #CEA244",
"W. c #C6A149",
"Q. c #D3A544",
"!. c #D4AA43",
"~. c #DAAB44",
"^. c #D7A748",
"/. c #DDB343",
"(. c #DBB145",
"). c #E6AE42",
"_. c #E5B344",
"`. c #EAB543",
"'. c #E6BA44",
"]. c #ECBA44",
"[. c #E5B349",
"{. c #EDBA4A",
"}. c #EBB649",
"|. c #F2BA45",
" X c #F3B948",
".X c #F2C045",
"XX c #957C82",
"oX c #AB7E81",
"OX c #9B8B8C",
"+X c #988784",
"@X c #959697",
"#X c #958C88",
"$X c #A68B8B",
"%X c #AB9C9C",
"&X c #A59795",
"*X c #A79091",
"=X c #B6A78A",
"-X c #AAA599",
";X c #A9A58A",
":X c #A7A6A3",
">X c #BCACAC",
",X c #B7A7A7",
"<X c #BCB2AA",
"1X c #BCB8B7",
"2X c #B4B1B0",
"3X c #A19CA3",
"4X c #C4ADAE",
"5X c #C2B5B5",
"6X c #C3BCBC",
"7X c #C8BBBB",
"8X c #C6AFB1",
"9X c #C2AF8F",
"0X c #D1CBBC",
"qX c #C5C3BA",
"wX c #BFBFC7",
"eX c #C6BEC3",
"rX c #CDCBCC",
"tX c #C9C6C5",
"yX c #D3CACA",
"uX c #D6D1CA",
"iX c #DDDBDB",
"pX c #D7D5D5",
"aX c #E3DDDC",
"sX c #E2D9D8",
"dX c #E3E1DF",
"fX c #DEDEE0",
"gX c #DDE7E7",
"hX c #E4E4E4",
"jX c #EAE6E6",
"kX c #ECEBEB",
"lX c #E5E8E6",
"zX c #F2EDED",
"xX c #EDF1EF",
"cX c #ECF2F3",
"vX c #F4F4F4",
"bX c #F7FBFB",
"nX c white",
"mX c #FEFEFF",
"MX c #FDFEFD",
"NX c #FFFFFF",
"BX c #F8F6F7",
"VX c #F2F0F0",
"CX c #E3D8E0",
/* pixels */
"nXnXnXnXnXnXnXnXnXnXnXnXnXnXnXnXMXnXnXnXnXnXBXjXlXlXhXlXlXlXlXgXlXjXlXlXkXvXbXnXnXMXnXnXnXnXnXMXnXnXnXnXnXnXnXnXnXnXnXnX",
"nXnXnXnXnXnXnXnXnXnXnXnXnXnXnXnXbXnXnXMXvXdXyX6X5X5X5X5X5X5X5X1X5X5X1X5X6XyXdXxXbXnXnXnXnXnXnXnXnXnXnXnXnXnXnXnXnXnXnXnX",
"nXnXnXnXnXnXnXnXnXnXnXnXnXnXnXnXnXnXbXlXyX,X+Xp.u.u.u.u.u.u.u.u.i.u.u.u.a.OX,XtXjXBXnXnXnXnXnXnXnXnXnXnXnXnXnXnXnXnXnXnX",
"nXnXnXnXnXnXnXnXnXnXnXnXnXnXnXnXnXBXaX5X*Xj.8.4.;.;.;.;.;.;.;.;.;.;.;.;.4.8.f.$X5XaXBXbXnXnXnXnXnXnXnXnXnXnXnXnXnXnXnXnX",
"nXnXnXnXnXnXnXnXnXnXnXnXnXnXMXnXBXaX5Xh.8.5.<.,.1.,.,.,.,.,.,.0.,.,.,.1.,.<.5.8.f.4XaXvXMXnXnXnXnXnXnXnXnXnXnXnXnXnXnXnX",
"nXnXnXnXnXnXnXnXnXnXnXnXnXnXnXbXaX4XoX8.( ,.` ] ' ' 2.2.2.1.1.1.2.' ' ' ' ` ` _ 8.h.4XaXbXMXMXnXnXnXnXnXnXnXnXnXnXnXnXnX",
"nXnXnXnXnXnXnXnXnXnXnXnXnXnXbXfX8Xh.8.>.` 0.` ( / ` ] 1.2.2.' ' 2.] _ / _ ` ,.,.0.8.h.4XhXbXnXnXnXnXnXnXnXnXnXnXnXnXnXnX",
"nXnXnXnXnXnXnXnXnXnXnXnXnXnXkX1X$X7.;./ [ / ! | Q ^ _ 1.2.2.2.1.3.` ^ Q ! ( ( / [ >.8.$X6XkXnXnXnXnXnXnXnXnXnXnXnXnXnXnX",
"nXnXnXnXnXnXnXnXnXMXnXnXMXMXsX$X7.5.^ ! ! { { z h 8 / 1.1.' ' 1.3.( 8 h v { | ~ ! ^ 5.7.*XiXbXbXnXnXnXnXnXnXnXnXnXnXnXnX",
"nXnXnXnXnXnXnXnXnXnXnXnXbXxXtXf.6.|  .o.$.-.t.z.%.X.! ^ / _ / / ) ! { $.z.=.-.$.o. .! A f.7XkXMXnXnXnXnXnXnXnXnXnXnXnXnX",
"nXnXnXnXnXnXnXnXnXnXnXnXvXpX%XJ s | $.z.b.R.^.~.c.$.7 3 W Q W w 3 8 O.c.~.C.N.b.G.$.{ s 7.%XpXBXnXnXnXnXnXnXnXnXnXnXnXnX",
"nXnXnXnXnXnXnXnXnXnXnXnXlX1Xs.Z 7 ..=.E.(./.'.`.M.-.k < e W w q 9 c $.M._.'._./.Q.z...i A s.2XjXnXnXnXnXnXnXnXnXnXnXnXnX",
"nXnXnXnXnXnXnXnXnXnXnXnXfX@XG r 5 ..v._.].].].[.B.z.c 1 R ^ E R 9 c =.N._.'.}. X`.n.$.7 r G @XaXnXnXnXnXnXnXnXnXnXnXnXnX",
"nXnXnXnXnXnXnXnXnXnXMXnXpX+Xm & 5 ..v.`.|.].{.}./.H.@.7 Q ( / ^ 7 O.b.C.'.]. X X`.n.%.7 * B k.iXnXnXnXnXnXnXnXnXnXnXnXnX",
"nXnXnXnXnXnXnXnXnXnXMXnXpXY = & 7 @.c._.|.`.[.[.'.!.z.o. .( (  .} -.V.'.'.{.'.|.).v.@.7 & = Y uXnXnXnXnXnXnXnXnXnXnXnXnX",
"nXnXnXnXnXnXnXnXmXnXnXnXpXY = & 8 ..c._.|.Z.`.`.A.C.M.-.o.| c X.&.b.[.]._.[.`.Z.[.b.@.7 & = Y pXnXnXnXnXnXnXnXnXnXnXnXnX",
"nXnXnXnXnXnXnXnXMXnXnXvXtXU ; * 5 @.c._.|.`.'.`.Z.`.~.M.=.$.*.=.M.~.'.'.{.'.`.{._.v.$.7 $ = U eXzXnXnXnXnXnXnXmXnXnXnXnX",
"nXnXnXnXnXnXnXnXnXnXBXaX2XI * @ 5 ..c._.|.].].`.{.].[.).Q.E.E.^._.[.'.`._.`.].|.`.v.@.7 @ * H ,XiXBXnXnXnXnXnXnXnXnXnXnX",
"nXnXnXnXnXnXnXnXnXnXBXtX*XD # > 7 @.v._.|.Z.`.].{. X|.Z..X].].|.|.].|.|.`.`.].Z.`.n.@.7 > & D OXrXvXnXnXnXnXnXnXnXnXnXnX",
"nXnXnXnXnXnXnXnXnXnXvX6X+XA < , 7 @.c.~.[.~./.{.`.].|.].].].`.[.].].|.|.{.[.(._.~.n.+.7 , 0 A +X6XvXnXnXnXnXnXnXnXnXnXnX",
"nXnXnXnXnXnXnXnXnXnXvX1X+XA < , 7 ..x.R.R.c.b.E.B.V.Q.E.Q.Q.E.E.Q.Q.N.B.N.H.G.H.R.x.+.7 , , A d.1XvXnXnXnXnXnXnXnXnXnXnX",
"nXnXnXnXnXnXnXnXnXMXcX1Xd.A > , 7 ..&.F.J.D.D.F.x.z.F.l.z.z.z.l.l.F.F.x.F.S.e.J.F.&.@.p , , A d.1XvXnXnXnXnXnXnXnXnXnXnX",
"nXnXnXnXnXnXnXnXnXMXvX6Xd.A > , 7 X.%.e.T.-X;XT.T.I.r.%.&.l.=.&.#.r.I.I.T.%X&XY.w.%.} p 0 1 A XX6XvXnXnXnXnXnXnXnXnXnXnX",
"nXnXnXnXnXnXnXnXnXnXvX6XXXF 9 , 6 v n w.%XwX1X-X&X#XL n &.x.x.&.n L +X&X:XeXtX;Xw.#.} 5 9 < A XXeXvXnXnXnXnXnXnXnXnXnXnX",
"nXnXnXnXnXnXnXnXnXnXvXrX%XJ 9 1 7 k v L +X-X:X3X@XU.S.F.b.E.N.n.l.S.U.@X@X:X-X#Xr.X.c 6 < 0 J @XpXvXnXnXnXnXnXnXnXnXnXnX",
"nXnXnXnXnXnXnXnXnXnXbXhX5Xi.u 0 3 k v P w.I.Y.U.I.K.L.Q._.{.{.{.!.L.K.Y.Y.Y.I.w.P v c 6 < a u.2XhXBXnXnXnXnXnXnXnXnXnXnX",
"nXnXnXnXnXnXnXnXnXnXbXvXyXa.M 9 e ! | X.q.D.P.H.H.W.~.`.].|.].`.'.~.R.H.P.P.J.q.v | ! 3 1 N f.tXvXnXnXnXnXnXnXnXnXnXnXnX",
"nXnXnXnXnXnXnXnXnXnXnXnXaX$XJ - q Q ! | ..&.b.V.~./.'.'.].].'.'.|.`.).~.E.H.=.O.| Q Q 3 r J *XiXnXnXnXnXnXnXnXnXnXnXnXnX",
"nXnXnXnXnXnXnXnXnXnXnXnXzX5Xd.Z 9 w ^ /  .$.v.V.[.'.'.'.].{.].].|.].A.'.C.v.*.{ ( ^ R r Z s.>XjXnXnXnXnXnXnXnXnXnXnXnXnX",
"nXnXnXnXnXnXnXnXnXnXnXnXBXiX>Xs.H A Q _ (  .=.!.`.|.|.`.[._.A.`.'.Z.Z.`.Q.=.o.5.` >.N J s.2XpXzXnXnXnXnXnXnXnXnXnXnXnXnX",
"nXnXnXnXnXnXnXnXnXnXnXnXnXBXhXrX-Xa.4.>.( | $.M.~.[._.V.~.~.~.~.V.)._.!.R.t.| >.>.9.a.%XtXhXBXMXnXnXnXnXnXnXnXnXnXnXnXnX",
"nXnXnXnXnXnXnXnXnXbXnXnXnXnXnXbXpX,Xj.8.~ ~ o.-.M.N.n.m.v.b.c.n.v.M.M.M.c.O.8 ( 8.j.,XiXBXmXnXMXnXnXnXnXnXnXnXnXnXnXnXnX",
"nXnXnXnXnXnXnXnXnXnXnXnXnXnXnXnXcXdX4Xh.6.5 k %.l.l.%.n #.%.%.#.+.#.&.l.&.{ t 6.f.>XaXvXMXnXnXnXnXnXnXnXnXnXnXnXnXnXnXnX",
"nXnXnXnXnXnXnXnXnXnXnXnXnXnXnXnXnXbXsX,Xa.y h X.@.#.l j z z z l l l n +.} k M a.,XsXBXnXnXnXnXnXnXnXnXnXnXnXnXnXnXnXnXnX",
"nXnXnXnXnXnXnXnXnXnXnXnXnXnXnXnXmXnXxXuX&XD u x x x g % h z z h g f f x h u D OXyXvXnXnXnXnXnXnXnXnXnXnXnXnXnXnXnXnXnXnX",
"nXnXnXnXnXnXnXnXnXnXnXnXnXnXnXnXnXbXhXqX+XS - - f B ; r p p p p ; f B ; - - K +XqXlXbXMXnXnXnXnXnXnXnXnXnXnXnXnXnXnXnXnX",
"nXnXnXnXnXnXnXnXnXnXnXnXnXnXnXnXbXkXuX=Xe.v 6 $ = m y a a s s s s y ; = : 6 v e.;X0XjXbXnXMXnXnXnXnXnXnXnXnXnXnXnXnXnXnX",
"nXnXnXnXnXnXnXnXnXnXnXnXnXnXnXnXhX0X9XL.G.=.} % - t q ~ 7.y.y.7.~ s r - % z =.G.K.=X0XkXMXnXnXnXnXnXnXnXnXnXnXnXnXnXnXnX",
"nXnXnXnXnXnXnXnXnXnXnXnXnXnXbXvXuX=XK.R.B.E.=.z 5 3 w 4.u.d.s.u.;.i 3 5 z &.E.~.W.K.;XyXkXMXnXnXnXnXnXnXnXnXnXnXnXnXnXnX",
"nXnXnXnXnXnXnXnXnXnXnXnXnXnXvXhX<XI.F.!.Z._.z.v 6 3 R ~ K I I K ;.4 3 p z x./.`.~.G.I.<XiXvXnXnXnXnXnXnXnXnXnXnXnXnXnXnX",
"nXnXnXnXnXnXnXnXnXnXnXnXnXMXkXeXOXr.-.R.!.R.=.v 6 7 7 u r - y ; 5 6 5 5 c t.R.C.E.=.r.$X7XzXnXnXnXnXnXnXnXnXnXnXnXnXnXnX",
"nXnXnXnXnXnXnXnXnXnXnXnXnXMXaX,Xg.|  .$.&.%.z 6 j k 5 r r t t 9 % 6 h h j z +.*.$.} 9.p.%XaXbXnXnXnXnXnXnXnXnXnXnXnXnXnX",
"nXnXnXnXnXnXnXnXnXnXnXnXnXBXyXd.4.i ~ c k h % X 6 h 6 $ < e e , o % h j X % h k k 8 s 6.d.yXVXmXnXnXnXnXnXnXnXnXnXnXnXnX",
"nXnXnXnXnXnXnXnXnXnXMXnXBXhX4Xp.~ w q i i i < $ 6 5 $ X < w e 2 O $ 5 6 O # a ~ ~ R w N u.>XaXBXnXnXnXnXnXnXnXnXnXnXnXnX",
"nXnXnXnXnXnXnXnXnXnXMXnXkXtX$X7.w w T E ^ R > O > 1 $ O < 4 4 < O $ 1 > d > w E / E w w 9.$X6XcXnXnXnXnXnXnXnXnXnXnXnXnX",
"nXnXnXnXnXnXnXnXnXnXnXnXhX:Xi.N e R ) [ Q 1 + O > 0 > @ > , , # O @ 0 9 + @ 2 T _ ^ w i s 7.%XgXnXnXnXnXnXnXnXnXnXnXnXnX",
"nXnXnXnXnXnXnXnXnXnXbXnXaXOXD t q w E ^ q o o + > q q 1 1 4 3 1 , 3 3 1 $ o O 1 Q Q w q t K +XiXnXnXnXnXnXnXnXnXnXnXnXnX",
"nXnXnXnXnXnXnXnXnXnXMXnXaXOXZ a 0 < , q @   . o < a i i q w W w W E T 3 $ .   + 3 3 , 0 r D OXCXnXnXnXnXnXnXnXnXnXnXnXnX",
"nXnXnXnXnXnXnXnXnXnXnXnXlX>Xs.H M < < > + : : = Z F N a i ^ T | :.~ c 5 % : o : 2 > 9 M J s.>XhXnXnXnXnXnXnXnXnXnXnXnXnX",
"nXnXnXnXnXnXnXnXnXnXnXnXBXaX5X*Xi.A y y Z G C V G I S x k ! ~ 4.F A x x x S S Z y u A i.*X5XaXbXnXnXnXnXnXnXnXnXnXnXnXnX",
"nXnXnXnXnXnXnXnXnXnXnXnXbXBXaXyX,XOXf.d.#X#XU V C S b v v X.9.J U G V f f i.OX#Xd.d.OX,XyXaXxXbXnXnXnXnXnXnXnXnXnXnXnXnX",
"nXnXnXnXnXnXnXnXnXnXnXnXnXnXbXBXkXiXuXuXuX1XU.B y x v } #.q.P I U I G f ; s.6XrXuXuXiXkXBXbXnXnXnXnXnXnXnXnXnXnXnXnXnXnX",
"nXnXnXnXnXnXnXnXbXMXnXnXnXnXnXMXbXBXBXvXlXtXU.; $ % 5 k v P g.U G Z ; + : s.tXhXvXvXvXbXnXnXnXnXnXnXnXnXnXnXnXnXnXnXnXnX",
"nXnXnXnXnXnXnXnXnXnXnXMXnXnXMXbXnXnXnXMXlX5Xa.r O O + & y G Y Y m # @ + * U 1XhXnXnXnXnXnXnXnXnXnXnXnXnXnXnXnXnXnXnXnXnX",
"nXnXnXnXnXnXnXnXnXnXnXnXnXnXnXnXnXnXnXbXpX%X7.1 @ + @ 9 ; G s.Y - O @ @ & H &XpXbXnXnXnXnXnXnXnXnXnXnXnXnXnXnXnXnXnXnXnX",
"nXnXnXnXnXnXnXnXnXnXnXnXnXMXnXnXnXnXnXMXrXOX7.s 9 # 9 a A L OXXXA $ r r a 7.+XyXnXnXnXnXnXnXnXnXnXnXnXnXnXnXnXnXnXnXnXnX",
"nXnXnXnXnXnXnXnXnXnXnXnXnXnXnXnXmXnXnXbXdX5X+Xi.H H J U s.%X7X2Xs.I H J i.+X>XaXnXnXnXnXnXnXnXnXnXnXnXnXnXnXnXnXnXnXnXnX",
"nXnXnXnXnXnXnXnXnXnXnXnXnXnXnXnXnXnXnXMXvXiX5X%X$X$X$X%X>XyXjXiX>X%X&X*X%X5XpXBXnXnXnXnXnXnXnXnXnXnXnXnXnXnXnXnXnXnXnXnX",
"nXnXnXnXnXnXnXnXnXnXnXnXnXnXnXnXnXMXMXnXnXBXkXaXsXaXsXaXjXVXMXvXjXaXaXsXaXkXBXMXnXnXnXnXnXnXnXnXnXnXnXnXnXnXnXnXnXnXnXnX",
"nXnXnXnXnXnXnXnXnXnXnXnXnXnXnXnXMXnXnXnXnXnXnXMXnXnXnXnXnXnXnXMXnXMXnXnXMXnXnXnXnXnXnXnXnXnXnXnXnXnXnXnXnXnXnXnXnXnXnXnX"
};
