/* XPM */
static char *_1ca73353ffe4444d4f88a44fb9ec491dKGmEBhHmqPZXFSL[] = {
/* columns rows colors chars-per-pixel */
"32 32 153 2 ",
"   c #47704C",
".  c #5A2326",
"X  c #070B0C",
"o  c #0A1514",
"O  c #0C1413",
"+  c #0C1212",
"@  c #1C1616",
"#  c #000704",
"$  c #061413",
"%  c #2A1718",
"&  c #1C1818",
"*  c #3D1F21",
"=  c #6A282C",
"-  c #1F1618",
";  c #2D191C",
":  c #62282C",
">  c #421F21",
",  c None",
"<  c #6B5628",
"1  c #472022",
"2  c #32191C",
"3  c #3D1E20",
"4  c #001312",
"5  c #2B1B1C",
"6  c #0C0C11",
"7  c #4A2125",
"8  c #1E1A1A",
"9  c #311D1F",
"0  c #422022",
"q  c #251A1B",
"w  c #502325",
"e  c #522427",
"r  c #412123",
"t  c #2D191B",
"y  c #61292C",
"u  c #62282B",
"i  c #562427",
"p  c #582427",
"a  c #3F2527",
"s  c #0A0D10",
"d  c #842E33",
"f  c #54422C",
"g  c #8B6931",
"h  c #552529",
"j  c #5F262B",
"k  c #301B1D",
"l  c #361B1D",
"z  c #722C31",
"x  c #512326",
"c  c #702B30",
"v  c #574941",
"b  c #2F1B1B",
"n  c #452720",
"m  c #1E1B1B",
"M  c #432323",
"N  c #825E31",
"B  c #45453F",
"V  c #311B1D",
"C  c #6A3B48",
"Z  c #B6B82D",
"A  c #66272B",
"S  c #B63941",
"D  c #ECB946",
"F  c #68292D",
"G  c #EFBA44",
"H  c #832F33",
"J  c #EAB744",
"K  c #F0BB45",
"L  c #62262B",
"P  c #72282D",
"I  c #E8B544",
"U  c #A5833A",
"Y  c #A7353D",
"T  c #7A502F",
"R  c #B43B42",
"E  c #77482D",
"W  c #F0BC47",
"Q  c #987334",
"!  c #EDBA48",
"~  c #A98538",
"^  c #E4B344",
"/  c #D9AA40",
"(  c #75542C",
")  c #772E30",
"_  c #D0A23E",
"`  c #572528",
"'  c #922F36",
"]  c #4B2022",
"[  c #78353B",
"{  c #936D32",
"}  c #8A3036",
"|  c #A17F34",
" . c #8D6931",
".. c #973339",
"X. c #AD373E",
"o. c #E0B043",
"O. c #7C2C31",
"+. c #542427",
"@. c #4E2D24",
"#. c #5F2829",
"$. c #BA8E3A",
"%. c #9D3239",
"&. c #884833",
"*. c #DCAD40",
"=. c #926F32",
"-. c #6F2D2E",
";. c #9F343B",
":. c #B08938",
">. c #69322B",
",. c #C99D3B",
"<. c #554D3D",
"1. c #6A3E32",
"2. c #452824",
"3. c #675A3F",
"4. c #C49B3D",
"5. c #7D3B30",
"6. c #A68A4B",
"7. c #939393",
"8. c #81602D",
"9. c #837A66",
"0. c #85775A",
"q. c #7F472E",
"w. c #ADACAC",
"e. c #8D887B",
"r. c #D4D5D8",
"t. c #7F6D48",
"y. c #8E8A80",
"u. c #845630",
"i. c #863A35",
"p. c #80672D",
"a. c #73716F",
"s. c #5A2529",
"d. c #2C1A1B",
"f. c #67492A",
"g. c #8F2C34",
"h. c #794E2D",
"j. c #563B3D",
"k. c #4E3D2A",
"l. c #6D272D",
"z. c #8F8182",
"x. c #524344",
"c. c #7C3531",
"v. c #CDA243",
"b. c #D0A545",
"n. c #948669",
"m. c #968766",
"M. c #654A49",
"N. c #836035",
"B. c #8E393E",
"V. c #70585A",
"C. c #9B7931",
"Z. c #002002",
"A. c #47704C",
/* pixels */
"                      # 4 $ $ $ $ $ $ 4 #                       ",
"                    $ 3 y : u : : u u y 3 X                     ",
"                  - = ..R R S R R R S R ..= q                   ",
"                - = X.R ;.Y S S S S Y ;.S X.= q                 ",
"              # 1 %.H 5.( >.S S S S -.( 5.H %.1 o               ",
"              @ c &.~ 4.^ { P } } P  .^ 4.:.&.z @               ",
"            o 8 L { G D ! ~ #.H H #.| ! D W Q A 8 o             ",
"            O & L { G I J o.T Y Y E *.J J G Q L & +             ",
"            O & L { G I I J $.T T $.J I I G Q L & +             ",
"            ; x L { K D J D D ^ ^ G D J D W Q L e 2             ",
"            % F A { J / D W K W ! W K D *.J Q A F %             ",
"            % A A  .6.0.U ~ U U U U ~ U 0.6.=.A F %             ",
"            % F F 8.9.r.w.7.3.| | 3.7.w.r.9.8.F F %             ",
"            @ . F E t.e.y.n.v.! ! b.m.y.e.t.E F . @             ",
"            O w A ..q.~ ,./ G D J K / ,.:.q...A w +             ",
"              2 t O.Y u.^ K G D D K G ^ u.Y H t l #             ",
"                4 i ;.i.:.^ _ _ _ _ o.$.i.;.i $                 ",
"                  6 p j  .| , p.p., C.=.j p s                   ",
"                    X 7 1.<.k.E E k.<.1.7 -                     ",
"                  6 < T 2.x.[ [ [ [ x.2.E < s                   ",
"                + < ,./ ( l.' z.z.' P , / _ < 6                 ",
"                ; N o.o.T >.c.j.j.c.>.T *.^ g 2                 ",
"              O h H h.f.@.( @.O.O.2.( @.f.h.H h +               ",
"              5 d P g.H ] ) ] P P ] ) ] H ' P d ;               ",
"            o * ) H X.` +.l.` A A +.-.` +.X.H ) * O             ",
"            o * F A A d.a [ } O.} ' ' @.d.A A F * O             ",
"              - 0 . . V B a.f &.B.V.<., b . . 0 9               ",
"                # X X @ f 1.N.g v a.M.n @ X X #                 ",
"                      5 e ] #.M m +.` a 5                       ",
"                    # > ) s.A 7 % ` #.-.1 #                     ",
"                      9 r > > ; 6 3 > r k                       ",
"                                                                "
};
