/* XPM */
static char *_2cba3bfc95b4ffe8e9dc35c6c6ac0b4z6QWJsKt2GHUWgMH[] = {
/* columns rows colors chars-per-pixel */
"60 60 175 2 ",
"   c #4586C0",
".  c #4689C5",
"X  c #4D8BC4",
"o  c #4388CB",
"O  c #4A8CCB",
"+  c #528EC4",
"@  c #548FC9",
"#  c #4D92CD",
"$  c #5591C7",
"%  c #5C93C6",
"&  c #5B98C7",
"*  c #5593CC",
"=  c #5B95CD",
"-  c #5D98CD",
";  c #4E8ED2",
":  c #4F96D8",
">  c #5594D2",
",  c #5A95D1",
"<  c #5799D1",
"1  c #5C9AD4",
"2  c #5698D9",
"3  c #6396C5",
"4  c #6D9CC6",
"5  c #6294CB",
"6  c #6997CB",
"7  c #649ACD",
"8  c #6C9BCB",
"9  c #639BD1",
"0  c #699ED3",
"q  c #619DD9",
"w  c #5FA0DA",
"e  c #64A0D6",
"r  c #69A2D7",
"t  c #63A1DA",
"y  c #6DA9DB",
"u  c #73A6D5",
"i  c #76AAD7",
"p  c #78ADD7",
"a  c #72A6DB",
"s  c #75AADC",
"d  c #7BAEDD",
"f  c #7BB1DE",
"g  c #6CA9E2",
"h  c #76ADE3",
"j  c #7BAEE2",
"k  c #75B1E4",
"l  c #7CB1E2",
"z  c #7EB8E6",
"x  c #77B3E9",
"c  c #7CB2EB",
"v  c #7EB8EA",
"b  c #8AACC8",
"n  c #84ACD5",
"m  c #82AEDB",
"M  c #8DB1D3",
"N  c #82B1DE",
"B  c #81AEE0",
"V  c #81B1E1",
"C  c #80B8E7",
"Z  c #8BBDEC",
"A  c #94BDE9",
"S  c #97C2EE",
"D  c #93C2F2",
"F  c #9ECCF5",
"G  c #9ECDFA",
"H  c #9AD0F2",
"J  c #9ED2FD",
"K  c #A4CBEF",
"L  c #ADCEEF",
"P  c #A3CDF4",
"I  c #A9CCF3",
"U  c #A2CDFA",
"Y  c #A9CFFA",
"T  c #A4D0F6",
"R  c #A9D0F5",
"E  c #A4D1FB",
"W  c #AAD2FB",
"Q  c #AFDBFE",
"!  c #B5DCF7",
"~  c #BADBF5",
"^  c #B2D5FB",
"/  c #B5DDFD",
"(  c #B9DDFD",
")  c #B5E0FE",
"_  c #BBE1FE",
"`  c #C1DEFD",
"'  c #DCE5EF",
"]  c #C1E2FE",
"[  c #DDE6F2",
"{  c #DBEDF6",
"}  c #DCEFF6",
"|  c #DEE9F6",
" . c #D2E7FC",
".. c #D7EBFC",
"X. c #DBEBF8",
"o. c #D8EBFA",
"O. c #DAEAFA",
"+. c #DCE9F9",
"@. c #DEEAF8",
"#. c #D9ECFB",
"$. c #DCECF9",
"%. c #DEEFF9",
"&. c #DCECFC",
"*. c #DDEDFD",
"=. c #E1E7F5",
"-. c #E1E8F3",
";. c #E1E9F4",
":. c #E3E9F5",
">. c #E0EAF4",
",. c #E1EBF5",
"<. c #E3EAF4",
"1. c #E2EAF5",
"2. c #E1EBF7",
"3. c #E3EBF6",
"4. c #E2E8F6",
"5. c #E4EBF5",
"6. c #E7EBF6",
"7. c #E4ECF7",
"8. c #E2EAF4",
"9. c #E1EAF9",
"0. c #E1EDF9",
"q. c #E3EDF9",
"w. c #E1EDFB",
"e. c #E4ECF9",
"r. c #E2ECF9",
"t. c #E5F1FD",
"y. c #E7F1FD",
"u. c #FFFDF5",
"i. c #FFFFF5",
"p. c #FEFEF4",
"a. c #FFFDF5",
"s. c #FAFCFB",
"d. c #F9FEFA",
"f. c #FAFFFB",
"g. c #FDFCF8",
"h. c #FFFCF9",
"j. c #FEFDF9",
"k. c #FDFEF8",
"l. c #FFFEF8",
"z. c #FFFFF8",
"x. c #FFFDFA",
"c. c #FFFEFA",
"v. c #FFFEFB",
"b. c #FFFFFB",
"n. c #FBFAFF",
"m. c #FDFBFC",
"M. c #FDFAFF",
"N. c #FEFBFF",
"B. c #FFFBFF",
"V. c #F8FCFD",
"C. c #FBFDFC",
"Z. c #FAFDFF",
"A. c #F9FFFF",
"S. c #FBFFFF",
"D. c gray99",
"F. c #FDFDFD",
"G. c #FFFCFD",
"H. c #FEFEFC",
"J. c #FFFEFC",
"K. c #FFFEFD",
"L. c #FEFFFD",
"P. c #FFFFFD",
"I. c #FCFCFE",
"U. c #FCFDFF",
"Y. c #FDFDFF",
"T. c #FFFCFF",
"R. c #FFFDFF",
"E. c #FDFEFF",
"W. c #FCFFFF",
"Q. c #FEFEFE",
"!. c #FEFEFF",
"~. c #FFFEFF",
"^. c #FEFFFF",
"/. c white",
"(. c #FEFFFE",
/* pixels */
"P.P.z.z.z.i.P.P.d.P.P.P.P.z.z.P.P.P.P.P.P.P.P.P.P.P.P.P.P.P.P.P.A.P.z.z.P.P.P.P.P.P.P.P.P.P.P.P.z.P.P.A.P.z.P.P.z.i.z.P.",
"P.n.P.M.P.P.M.M.P.P.P.P.A.d.P.P.P.P.P.P.P.P.P.P.P.P.P.P.P.P.P.P.P.P.M.P.P.P.P.P.P.P.P.P.P.P.P.P.P.P.P.P.P.P.P.A.A.z.P.P.",
"z.P.A.X.X.} &.$.>.[ >.>.[ 0.t.>.>.>.>.>.>.>.>.>.>.>.>.>.>.>.>.>.>.[ >.t.>.[ 7.>.>.>.>.>.>.>.>.>.5.-.r.e.5.-.>.0. .A.P.P.",
"z.P.$.n 6 4 6 6 9 9 9 6 9 w 1 7 9 9 9 9 9 9 9 9 9 9 9 9 9 9 9 9 7 9 1 1 e - 9 7 9 9 9 9 9 9 9 9 0 9 9 9 9 7 q , M 0.P.P.",
"z.P.#.8 1 l c c N C N m V q + i V V N N N N N V N N N N N N N N N V 9 + s N N N N N N N N N N N N m V d N N V 7 6 +.P.P.",
"i.P.{ 4 l / ( / ( / / ( ( h = T / / / / / / / / / / / / / / / / ( / d 3 F ( / / / / / / / / / / / / _ / ( / / N 7 @.P.P.",
"P.P.X.6 c ( ` / ( ) / ] _ h * E / / / / / / / / / / / / / / / / ( / h % E _ ( / / / / / / / / / / / ) / / / / d 9 @.z.P.",
"P.P.{ 6 x / / ) ~ ) / ~ ( x , F ( ~ ! ! ! ~ ~ ! ( ( ( ( ( ( ( ( ( / l % F / / / ( ( ( ( ( ( ( ( ( ! / ! ! / ) N 7 0.z.A.",
"d.P.>.9 m ( ( ~ / / / ) ! j , F ( / / / / ( ( / / / / / / / / / / / x = P ( ) / / / / / / / / / ( / / / / / / V 9 >.P.P.",
"P.P.[ 9 C / ) ) ~ ( / ! ~ l - K ( ~ ~ ( ~ ~ ( ~ ~ ~ ( ( ( ( ( / ~ / h % I ] ( ~ / ( ( ( / / ( ( ( / ! ( ~ ( / m 9 >.P.P.",
"P.P.[ 9 N / / / / ( / / / h , P ) / / ) / / / / ( / / / / / / / ( / z * T ( / ! / / / / / / / / / / / / / / / N 9 >.P.P.",
"P.P.>.7 m ( ` ~ / ( / _ ( s * E _ / / _ / / / / / / / ( / / / ) ( / l * T / / ~ / / / / / / / / / ) ) / / _ / N 9 >.P.P.",
"P.P.[ 9 N / ( ( / ( / / / d 9 U ( / / ( / / ( ( / / / ( ( ( / / _ / d = T _ ) ~ / / ( / / / ( / ( / / / ( _ Q N 9 >.P.P.",
"z.A.| t q j h x h f h h j 1 # a l h h h h j l h v z l d d f d d h l 1 . s l x d d f l d f z z h j s h l l d j q 9 >.P.P.",
"z.P.0.1 + 7 * = , & = , 5 < # = - = = = = - - $ . # = = = - - = $ 7 1 > & = > = - = * = $ X X 1 = = 1 = % = 1 O 9 >.P.P.",
"P.P.>.9 u P E P U K P U I P J I P P P P P U P S % d G E U P U U G I P E I P U P E F U W Z 6 u G P P T F P W F d 9 >.P.P.",
"P.P.>.9 N ( ( _ ( ( ( ( ( ( ( ( _ _ _ ( _ ( _ R = f _ ( _ _ _ _ ( ( ( ( ( ( ( _ _ _ ( ] E - d _ ( _ _ _ ( ( / V 9 -.P.P.",
"P.P.>.9 N ( / ( / / / / / / / / ! / / / / / ( P = d / / ! / / / / / / / / / / / / / / ( U - d / / ! ! ( ( ! / d 9 -.P.P.",
"z.P.-.9 N / / ( / / / / / / / / / / ( ( ( / _ P , j / / / / / ( / / / / / / / / ( / ( ( U , h / / / / / / / / V 9 >.P.P.",
"P.P.>.9 N / / ( / / / / / / / / / / / / / / _ P * d / / ! / / ( / / / / / / / / / / ~ ( G - d / / ! / / / ! Q f 9 >.P.P.",
"P.P.>.9 d / / ( ( ( ( ( ( ( ( ( ! / / ( ! ! _ P , f _ ~ ( / / ! ( ( ( ( ( ( ( ( / / ~ _ G - f _ ( ! ! ( ( ~ / N 9 -.P.P.",
"z.P.>.9 d / / ( / ( / / / / / / ! / / / ! / _ P * d / / ! / / ( / / / / / / / / / / ~ _ F = d ! ( ~ ~ ( ( ~ / m 9 >.P.P.",
"P.P.2.q V / / _ ( ( ( ( ( ( ( ( _ ( ( ( _ ) _ T 1 l / ( _ ) _ _ ( ( ( ( ( ( ( ( _ _ ( _ E 9 l / ( ( ( ( ( _ ) C 9 -.P.P.",
"P.P.>.1 s W P P P P P P P P P P P P P P I P W A > a W I P P P P P P P P P P P P P P K Y D * a R P P P U P T E a 9 -.P.P.",
"z.P.>.t @ - > 2 * - 1 = % 2 : % 1 , = = = = = = X + * = , , = = = & * 2 % % , , * = , = * + @ * , = * , , = 1 ; 9 -.P.P.",
"P.P.-.q 7 d l d j d d f d 1 O u l d d j d j d d l l l l l l l l j d = O a N l j l l l l l h l l j f f h j d d , 9 -.P.P.",
"P.P.>.r N / ( / / / Q / / j 1 E / / / / / / / / / / / / / / / / / / l 1 U ) Q / / / / / / / / / / / / / / / Q V 9 -.P.P.",
"P.P.' 7 m ( _ ~ / _ / / ( d = U ( ( ~ ( ( ~ ~ ~ ! ~ ~ ~ ~ ~ ~ ( ( ( f * U _ / ( ( ~ ~ ( ( ( ~ ~ ( ~ _ ( ( ( / m 9 -.P.P.",
"P.P.-.9 N / / ! / ~ ! ! ( l = U / ! / ! ! / / ! ! / / / / / / / ( / l , T ! ! ( / / / / / ! ! ! / ! / / / ! / d 9 >.P.P.",
"h.P.-.9 l / / ) ( / / ) / l , U _ / / / / / / / / / / / / / / / _ ! l 1 T ) ) ( / / / / / / / / / ) / _ / / ) l 9 >.P.P.",
"P.P.>.q V / / ( / / / / / h * U ( / / / / / / / / / / / / / / / / Q h , P _ ) / / / / / / / / / / ) ! / / / ) j 9 >.P.P.",
"P.P.>.- m ( / ~ / ( _ / / l = T _ ( ( ( ( ( ( ( ( ( ( ( ( ( ( / / ) l = P _ / ( ( ( ( / / ( ( / / _ ! ( ( ~ ) d 9 -.P.P.",
"A.P.>.9 N ( ( ( / ( ( ~ / j 5 J _ / / / / / / / ( / / ) / / / / ` / c % U ( ( ( / / / / / / / / ( / / / / ( ) B 9 >.P.P.",
"P.P.[ q V / / / / / ! ) / B 6 H ( ( ( ( / ( / ( ( / / ( ( ( ( / ] Q f 3 F _ ! ! ( ( / ( ( / / ( / / / ( ( ! / N 9 >.P.P.",
"z.M.>.q 9 l h l l s f f l 1 X y l d l d h h l l c l l d d d l d f k 1 X y l l l d l d d l l C d h f f l l p l 1 9 >.P.P.",
"z.P.e.1 + 3 % % , = - - , , * = = = = = * , 1 * o O 1 = = = , = @ , 2 , - - - , = 2 * = > o O = , - = , = + 1 O 9 >.P.P.",
"P.A.>.t s P E E U P Y P P W W F U U P E U U E S = s F U T G U P U U T W P Y U U U G G W D = y E U T F U Y P G h 9 >.P.P.",
"P.P.' 9 N ( _ / _ ~ ~ ( ( _ _ ! ` ( ~ _ ( ( ] L % m ( _ _ ( ( ( _ ~ ~ _ ~ ( _ ( ` ( _ ] P % d _ ( _ ) ( _ _ / N 9 >.P.P.",
"P.P.>.9 N / ( ( / / / / ) ! ! / ( ( / _ ! / _ K 1 l / ( / / / ~ / / ) / ) / / / ~ ) / ( P 1 l ! / ) ) / / / / V 9 >.P.P.",
"P.P.-.9 N / / / / _ ( / / ! ! / / / / _ / / _ P > h / ( ) / / ( ( ( ( ! _ / / ( ~ / / ` U > x ~ ( ( / ( ( ( / m 9 >.P.P.",
"P.P.=.9 m ( ( ~ _ ( / ( ( / / / / / ! _ / / _ P , d ) ~ ( / / ! ( / ! ) / ( / ) ~ ) / ` P * k ~ ( ! ! / / ) / d 9 >.P.P.",
"P.P.>.t V / / / / / / / / / / / / ( / _ / / _ P , h / ! / / / / / _ / / / ( / ) / / / ( P 1 x ( ( / / / / / / V 9 >.P.P.",
"z.P.[ 9 f / ) / / ( ( / / ! ! ! ( ~ ! ~ / ( ( K - l ) ~ ( ( ( ( / _ ! ( ( ( / ) ( / ( ] P = h ( ( ~ ! ( ( ~ / B 9 >.P.P.",
"P.P.-.7 m ( _ ~ _ ( ( ( ( ( ( _ ( _ ( ( ( _ _ I % V ( _ ( ( ( ( ( ( ( ( ( ` ( / ] ( ( ] P = d ( ( _ _ ( ( _ / m 9 >.P.P.",
"P.P.r.e s P E T T F E U F E E U U U U U G E E D = h G G F G G U F F E E P P U G U G P E Z 1 s G G E F U U P J h 9 >.P.P.",
"P.P.r.2 @ 9 * , 5 % 9 = = , * = - - - = = - = * . X = - = - = = % = < * = % & = = - = = $   X - - & % , - % 9 O 9 >.P.P.",
"P.P.r.q 0 l h x d d l l h 1 X g l l l l l l f l z l l l d f d h d j 1 X y f d j h l d d l l l d l f s h j p l q 9 5.P.P.",
"P.P.-.7 m ( ( ( _ / / ) ) d 3 J _ / / / / / / ) ! / ( ( / / / ( ( / j 5 F _ ! ( / ( / / / ( ( / / _ / / ( ( / V 9 5.P.P.",
"z.P.7.9 m ( / ~ ( ( / ( ( l - F ( / / / / / / / / / / / / / / / ( ( h , U _ / ( / / / / / / / / / ( / / / ( ( l 9 >.P.P.",
"P.P.-.9 N / / / / ( / ( / s * P ( ! ! ! ! ! ! ! ! ! ! ! ! ! ! ! / / f - P _ / ( ! ! ! ! ! ! ! ! / ! ! ) / ~ / f 9 -.P.P.",
"P.A.| q V / / / / ~ / / / l - E ( ! ! ! ! ! ! ! ! ! ! ! ! ! ! ! _ ! f = F _ ) ( ! ! ! ! ! ! ! ! / ! ! ) / ! / f 9 -.P.P.",
"P.P.0.0 N ( / ( / _ ! ! ( l = F ( ( ( ( ( ( ( ( ( ( ( / ( ( ( ( / / h , U _ / / ( ( ( / ( ( ( ( / ( ( / / ( / l 9 -.P.P.",
"P.P.5.9 d ( / ! / ~ ! ( ( V = P ( / / ( ( ( / ( ( ( / / ( ( ( ( ^ ( l = U _ / ( ( ( / / ( ( ( ( / ( ( / / ( / d 9 -.P.P.",
"z.P.-.9 N _ _ / / / / _ ( d - T _ ! ! ! ! ! ! ! / / / / / / / / _ _ p % P _ / ( / / / / / / / / / ~ ~ / ! ~ / d 9 -.P.P.",
"P.P.>.e l / Q / ) / / / Q j 1 F ) / / / / / / / / / / / / / / / ) Q k 1 F ) Q / / / / / / / / / / / / ) / / / C 9 -.P.P.",
"P.P.r.1 7 N d N V m N N N q O d V V V V V V V V V V V V V V V V B N q ; j N V B V V V V V V V V V m m V j m C , 9 -.P.P.",
"z.A...M 3 0 0 9 9 9 9 9 9 9 9 9 9 9 9 9 9 9 9 9 9 9 9 9 9 9 9 9 9 9 9 9 9 9 9 9 9 9 9 9 9 9 9 9 9 9 9 9 9 9 9 9 b ..P.z.",
"z.P.P.e.[ &.| 0.>.>.>.>.>.>.>.>.>.>.>.>.>.>.>.>.>.>.>.>.>.>.>.>.>.>.>.>.>.>.>.>.>.>.5.>.>.>.>.>.>.>.>.>.>.>.>.>.*.A.P.z.",
"P.n.P.P.P.P.i.i.P.P.P.P.P.P.P.P.P.P.P.P.P.P.P.P.P.P.P.P.P.P.P.P.P.P.P.P.P.P.P.P.P.P.P.P.P.P.P.P.P.P.P.P.P.P.P.P.P.P.a.i.",
"P.P.P.P.P.P.A.A.P.P.P.P.P.P.P.P.P.P.P.P.P.P.P.P.P.P.P.P.P.P.P.P.P.P.P.P.P.P.P.P.P.P.P.P.P.P.P.P.P.P.P.P.P.P.P.P.h.z.z.z."
};
